# Blender v2.91.0 OBJ File: 'stalacmite1.blend'
# www.blender.org
mtllib stalacmite 5.mtl
o Cube
v 5.572597 1.196251 -5.572597
v 8.123398 -1.196251 -8.123398
v 5.572597 1.196251 5.572597
v 8.123398 -1.196251 8.123398
v -5.572597 1.196251 -5.572597
v -8.123398 -1.196251 -8.123398
v -5.572597 1.196251 5.572597
v -8.123398 -1.196251 8.123398
v 6.308563 4.763649 6.308563
v -6.308563 4.763649 6.308563
v 6.308563 4.763649 -6.308563
v -6.308563 4.763649 -6.308563
v 2.991353 10.028630 2.991353
v -2.991353 10.028630 2.991353
v 2.991353 10.028630 -2.991353
v -2.991353 10.028630 -2.991353
v 3.956774 12.914868 3.956774
v -3.956774 12.914868 3.956774
v 3.956774 12.914868 -3.956774
v -3.956774 12.914868 -3.956774
v 5.650103 15.917765 5.650103
v -5.650103 15.917765 5.650103
v 5.650103 15.917765 -5.650103
v -5.650103 15.917765 -5.650103
v 3.080038 20.213324 3.080038
v -3.080038 20.213324 3.080038
v 3.080038 20.213324 -3.080038
v -3.080038 20.213324 -3.080038
v 6.651338 28.373247 6.651338
v -6.651338 28.373247 6.651338
v 6.651338 28.373247 -6.651338
v -6.651338 28.373247 -6.651338
v 8.077006 36.693287 8.077006
v -8.077006 36.693287 8.077006
v 8.077006 36.693287 -8.077006
v -8.077006 36.693287 -8.077006
v 6.823515 42.708595 6.823515
v -6.823515 42.708595 6.823515
v 6.823515 42.708595 -6.823515
v -6.823515 42.708595 -6.823515
v 2.526424 49.416214 2.526424
v -2.526424 49.416214 2.526424
v 2.526424 49.416214 -2.526424
v -2.526424 49.416214 -2.526424
v 0.704966 57.846622 0.704966
v -0.704966 57.846622 0.704966
v 0.704966 57.846622 -0.704966
v -0.704966 57.846622 -0.704966
v 0.000000 -1.196251 -10.013922
v 0.000000 1.196251 7.557662
v 0.000000 -1.196251 10.108462
v 0.000000 1.196251 -7.463121
v 0.000000 4.763649 8.293628
v 0.000000 4.763649 -8.199087
v 0.000000 10.028630 4.976418
v 0.000000 10.028630 -4.881877
v 0.000000 12.914868 5.941839
v 0.000000 12.914868 -5.847298
v 0.000000 15.917765 7.635168
v 0.000000 15.917765 -7.540627
v 0.000000 20.213324 5.065103
v 0.000000 20.213324 -4.970562
v 0.000000 28.373247 8.636403
v 0.000000 28.373247 -8.541862
v 0.000000 36.693287 10.062070
v 0.000000 36.693287 -9.967529
v 0.000000 42.708595 8.808579
v 0.000000 42.708595 -8.714039
v 0.000000 49.416214 4.511488
v 0.000000 49.416214 -4.416947
v 0.000000 57.846622 0.704966
v 0.000000 57.846622 -0.704966
v -10.397420 -1.196251 0.000000
v 7.499433 1.196251 0.000000
v -7.846618 1.196251 0.000000
v 10.050234 -1.196251 0.000000
v 8.235398 4.763649 0.000000
v -8.582584 4.763649 0.000000
v 4.918189 10.028630 0.000000
v -5.265375 10.028630 0.000000
v 5.883610 12.914868 0.000000
v -6.230796 12.914868 0.000000
v 7.576939 15.917765 0.000000
v -7.924125 15.917765 0.000000
v 5.006874 20.213324 0.000000
v -5.354060 20.213324 0.000000
v 8.578174 28.373247 0.000000
v -8.925360 28.373247 0.000000
v 10.003841 36.693287 0.000000
v -10.351027 36.693287 0.000000
v 8.750351 42.708595 0.000000
v -9.097537 42.708595 0.000000
v 4.453259 49.416214 0.000000
v -4.800445 49.416214 0.000000
v 0.704966 57.846622 0.000000
v -0.704966 57.846622 0.000000
v 0.000000 57.846622 0.000000
v 0.000000 -1.196251 0.000000
vt 0.625000 0.375000
vt 0.625000 0.250000
vt 0.625000 0.250000
vt 0.625000 0.375000
vt 0.375000 0.875000
vt 0.625000 0.875000
vt 0.625000 1.000000
vt 0.375000 1.000000
vt 0.375000 0.125000
vt 0.625000 0.125000
vt 0.375000 0.250000
vt 0.250000 0.625000
vt 0.375000 0.625000
vt 0.375000 0.750000
vt 0.250000 0.750000
vt 0.625000 0.625000
vt 0.625000 0.750000
vt 0.375000 0.375000
vt 0.625000 0.500000
vt 0.375000 0.500000
vt 0.625000 0.125000
vt 0.625000 0.000000
vt 0.625000 0.000000
vt 0.625000 0.125000
vt 0.625000 0.750000
vt 0.625000 0.875000
vt 0.625000 0.000000
vt 0.625000 0.500000
vt 0.625000 0.625000
vt 0.625000 0.375000
vt 0.625000 0.250000
vt 0.625000 0.250000
vt 0.625000 0.375000
vt 0.625000 0.750000
vt 0.625000 0.875000
vt 0.625000 0.500000
vt 0.625000 0.625000
vt 0.625000 0.125000
vt 0.625000 0.000000
vt 0.625000 0.000000
vt 0.625000 0.125000
vt 0.625000 0.500000
vt 0.625000 0.625000
vt 0.625000 0.750000
vt 0.625000 0.875000
vt 0.625000 0.875000
vt 0.625000 0.750000
vt 0.625000 0.750000
vt 0.625000 0.875000
vt 0.625000 0.250000
vt 0.625000 0.375000
vt 0.625000 0.500000
vt 0.625000 0.625000
vt 0.625000 0.375000
vt 0.625000 0.250000
vt 0.625000 0.250000
vt 0.625000 0.375000
vt 0.625000 0.500000
vt 0.625000 0.625000
vt 0.625000 0.000000
vt 0.625000 0.125000
vt 0.625000 0.125000
vt 0.625000 0.000000
vt 0.625000 0.000000
vt 0.625000 0.125000
vt 0.625000 0.500000
vt 0.625000 0.625000
vt 0.625000 0.750000
vt 0.625000 0.875000
vt 0.625000 0.375000
vt 0.625000 0.250000
vt 0.625000 0.250000
vt 0.625000 0.375000
vt 0.625000 0.750000
vt 0.625000 0.875000
vt 0.625000 0.500000
vt 0.625000 0.625000
vt 0.625000 0.625000
vt 0.625000 0.500000
vt 0.625000 0.500000
vt 0.625000 0.625000
vt 0.625000 0.000000
vt 0.625000 0.125000
vt 0.625000 0.750000
vt 0.625000 0.875000
vt 0.625000 0.125000
vt 0.625000 0.000000
vt 0.625000 0.000000
vt 0.625000 0.125000
vt 0.625000 0.750000
vt 0.625000 0.875000
vt 0.625000 0.250000
vt 0.625000 0.375000
vt 0.750000 0.625000
vt 0.875000 0.625000
vt 0.875000 0.750000
vt 0.750000 0.750000
vt 0.625000 0.750000
vt 0.625000 0.875000
vt 0.625000 0.250000
vt 0.625000 0.375000
vt 0.625000 0.500000
vt 0.625000 0.625000
vt 0.625000 1.000000
vt 0.625000 1.000000
vt 0.625000 1.000000
vt 0.625000 1.000000
vt 0.625000 1.000000
vt 0.625000 1.000000
vt 0.625000 1.000000
vt 0.625000 1.000000
vt 0.625000 1.000000
vt 0.625000 1.000000
vt 0.125000 0.625000
vt 0.125000 0.750000
vt 0.125000 0.500000
vt 0.250000 0.500000
vt 0.750000 0.500000
vt 0.875000 0.500000
vt 0.375000 0.000000
vn -0.2957 -0.2222 -0.9291
vn -0.1807 0.7608 0.6233
vn -0.6136 0.7629 -0.2038
vn 0.0000 -1.0000 0.0000
vn 0.6252 0.7604 0.1759
vn 0.1729 0.7601 -0.6264
vn -0.7344 0.5759 0.3592
vn 0.3090 -0.2226 0.9246
vn -0.9102 -0.2237 0.3484
vn 0.9274 -0.2224 -0.3008
vn -0.4477 -0.3501 -0.8228
vn 0.3212 0.5752 0.7523
vn -0.3082 0.5747 -0.7581
vn 0.7559 0.5749 -0.3132
vn -0.7646 -0.5332 0.3620
vn 0.8192 -0.3500 -0.4543
vn -0.7843 -0.3482 0.5134
vn 0.4648 -0.3498 0.8134
vn 0.3442 0.5557 0.7568
vn 0.3233 -0.5323 0.7824
vn -0.3101 -0.5318 -0.7880
vn 0.7859 -0.5320 -0.3152
vn -0.3256 -0.4380 -0.8380
vn -0.3305 0.5554 -0.7631
vn 0.7607 0.5556 -0.3358
vn -0.7372 0.5559 0.3840
vn -0.9389 -0.1857 0.2899
vn 0.8357 -0.4382 -0.3310
vn -0.8138 -0.4394 0.3803
vn 0.3395 -0.4385 0.8321
vn -0.2398 0.2219 -0.9451
vn 0.2558 -0.1845 0.9490
vn -0.2444 -0.1841 -0.9520
vn 0.9509 -0.1843 -0.2488
vn 0.7523 0.5813 -0.3101
vn 0.9440 0.2221 -0.2441
vn -0.9322 0.2239 0.2845
vn 0.2510 0.2225 0.9421
vn -0.7721 0.3296 0.5433
vn -0.7311 0.5823 0.3556
vn 0.3180 0.5815 0.7488
vn -0.3051 0.5811 -0.7545
vn 0.0000 1.0000 0.0000
vn 0.4954 0.3227 0.8065
vn -0.4784 0.3200 -0.8177
vn 0.8134 0.3211 -0.4850
vn 0.4784 0.3200 -0.8177
vn -0.4954 0.3227 0.8065
vn 0.3051 0.5811 -0.7545
vn -0.3180 0.5815 0.7488
vn -0.2510 0.2225 0.9421
vn 0.2444 -0.1841 -0.9520
vn -0.2558 -0.1845 0.9490
vn 0.2398 0.2219 -0.9451
vn -0.3395 -0.4385 0.8321
vn 0.3305 0.5554 -0.7631
vn 0.3256 -0.4380 -0.8380
vn 0.3101 -0.5318 -0.7880
vn -0.3233 -0.5323 0.7824
vn -0.3442 0.5557 0.7568
vn -0.4648 -0.3498 0.8134
vn 0.3082 0.5747 -0.7581
vn -0.3212 0.5752 0.7523
vn 0.4477 -0.3501 -0.8228
vn -0.3090 -0.2226 0.9246
vn -0.1729 0.7601 -0.6264
vn 0.1807 0.7608 0.6233
vn 0.2957 -0.2222 -0.9291
vn 0.8134 0.3211 0.4850
vn -0.7311 0.5823 -0.3556
vn -0.7721 0.3296 -0.5433
vn -0.9322 0.2239 -0.2845
vn 0.9440 0.2221 0.2441
vn 0.7523 0.5813 0.3101
vn 0.9509 -0.1843 0.2488
vn -0.8138 -0.4394 -0.3803
vn 0.8357 -0.4382 0.3310
vn -0.9389 -0.1857 -0.2899
vn -0.7372 0.5559 -0.3840
vn 0.7607 0.5556 0.3358
vn 0.7859 -0.5320 0.3152
vn -0.7843 -0.3482 -0.5134
vn 0.8192 -0.3500 0.4543
vn -0.7646 -0.5332 -0.3620
vn 0.7559 0.5749 0.3132
vn 0.9274 -0.2224 0.3008
vn -0.9102 -0.2237 -0.3484
vn -0.7344 0.5759 -0.3592
vn 0.6252 0.7604 -0.1759
vn -0.6136 0.7629 0.2038
usemtl Material
s off
f 52/1/1 5/2/1 12/3/1 54/4/1
f 51/5/2 50/6/2 7/7/2 8/8/2
f 73/9/3 75/10/3 5/2/3 6/11/3
f 98/12/4 76/13/4 4/14/4 51/15/4
f 76/13/5 74/16/5 3/17/5 4/14/5
f 49/18/6 52/1/6 1/19/6 2/20/6
f 78/21/7 10/22/7 14/23/7 80/24/7
f 50/6/8 3/17/8 9/25/8 53/26/8
f 75/10/9 7/27/9 10/22/9 78/21/9
f 74/16/10 1/19/10 11/28/10 77/29/10
f 56/30/11 16/31/11 20/32/11 58/33/11
f 53/26/12 9/25/12 13/34/12 55/35/12
f 54/4/13 12/3/13 16/31/13 56/30/13
f 77/29/14 11/28/14 15/36/14 79/37/14
f 82/38/15 18/39/15 22/40/15 84/41/15
f 79/37/16 15/36/16 19/42/16 81/43/16
f 80/24/17 14/23/17 18/39/17 82/38/17
f 55/35/18 13/34/18 17/44/18 57/45/18
f 59/46/19 21/47/19 25/48/19 61/49/19
f 57/45/20 17/44/20 21/47/20 59/46/20
f 58/33/21 20/32/21 24/50/21 60/51/21
f 81/43/22 19/42/22 23/52/22 83/53/22
f 62/54/23 28/55/23 32/56/23 64/57/23
f 60/51/24 24/50/24 28/55/24 62/54/24
f 83/53/25 23/52/25 27/58/25 85/59/25
f 84/41/26 22/40/26 26/60/26 86/61/26
f 88/62/27 30/63/27 34/64/27 90/65/27
f 85/59/28 27/58/28 31/66/28 87/67/28
f 86/61/29 26/60/29 30/63/29 88/62/29
f 61/49/30 25/48/30 29/68/30 63/69/30
f 66/70/31 36/71/31 40/72/31 68/73/31
f 63/69/32 29/68/32 33/74/32 65/75/32
f 64/57/33 32/56/33 36/71/33 66/70/33
f 87/67/34 31/66/34 35/76/34 89/77/34
f 91/78/35 39/79/35 43/80/35 93/81/35
f 89/77/36 35/76/36 39/79/36 91/78/36
f 90/65/37 34/64/37 38/82/37 92/83/37
f 65/75/38 33/74/38 37/84/38 67/85/38
f 94/86/39 42/87/39 46/88/39 96/89/39
f 92/83/40 38/82/40 42/87/40 94/86/40
f 67/85/41 37/84/41 41/90/41 69/91/41
f 68/73/42 40/72/42 44/92/42 70/93/42
f 97/94/43 96/95/43 46/96/43 71/97/43
f 69/91/44 41/90/44 45/98/44 71/99/44
f 70/93/45 44/92/45 48/100/45 72/101/45
f 93/81/46 43/80/46 47/102/46 95/103/46
f 43/80/47 70/93/47 72/101/47 47/102/47
f 42/104/48 69/91/48 71/99/48 46/105/48
f 95/103/43 97/94/43 71/97/43 45/98/43
f 39/79/49 68/73/49 70/93/49 43/80/49
f 38/106/50 67/85/50 69/91/50 42/104/50
f 34/107/51 65/75/51 67/85/51 38/106/51
f 31/66/52 64/57/52 66/70/52 35/76/52
f 30/108/53 63/69/53 65/75/53 34/107/53
f 35/76/54 66/70/54 68/73/54 39/79/54
f 26/109/55 61/49/55 63/69/55 30/108/55
f 23/52/56 60/51/56 62/54/56 27/58/56
f 27/58/57 62/54/57 64/57/57 31/66/57
f 19/42/58 58/33/58 60/51/58 23/52/58
f 18/110/59 57/45/59 59/46/59 22/111/59
f 22/111/60 59/46/60 61/49/60 26/109/60
f 14/112/61 55/35/61 57/45/61 18/110/61
f 11/28/62 54/4/62 56/30/62 15/36/62
f 10/113/63 53/26/63 55/35/63 14/112/63
f 15/36/64 56/30/64 58/33/64 19/42/64
f 7/7/65 50/6/65 53/26/65 10/113/65
f 6/11/66 5/2/66 52/1/66 49/18/66
f 73/114/4 98/12/4 51/15/4 8/115/4
f 4/14/67 3/17/67 50/6/67 51/5/67
f 1/19/68 52/1/68 54/4/68 11/28/68
f 6/116/4 49/117/4 98/12/4 73/114/4
f 47/102/43 72/118/43 97/94/43 95/103/43
f 41/90/69 93/81/69 95/103/69 45/98/69
f 72/118/43 48/119/43 96/95/43 97/94/43
f 40/72/70 92/83/70 94/86/70 44/92/70
f 44/92/71 94/86/71 96/89/71 48/100/71
f 36/71/72 90/65/72 92/83/72 40/72/72
f 33/74/73 89/77/73 91/78/73 37/84/73
f 37/84/74 91/78/74 93/81/74 41/90/74
f 29/68/75 87/67/75 89/77/75 33/74/75
f 28/55/76 86/61/76 88/62/76 32/56/76
f 25/48/77 85/59/77 87/67/77 29/68/77
f 32/56/78 88/62/78 90/65/78 36/71/78
f 24/50/79 84/41/79 86/61/79 28/55/79
f 21/47/80 83/53/80 85/59/80 25/48/80
f 17/44/81 81/43/81 83/53/81 21/47/81
f 16/31/82 80/24/82 82/38/82 20/32/82
f 13/34/83 79/37/83 81/43/83 17/44/83
f 20/32/84 82/38/84 84/41/84 24/50/84
f 9/25/85 77/29/85 79/37/85 13/34/85
f 3/17/86 74/16/86 77/29/86 9/25/86
f 5/2/87 75/10/87 78/21/87 12/3/87
f 12/3/88 78/21/88 80/24/88 16/31/88
f 2/20/89 1/19/89 74/16/89 76/13/89
f 49/117/4 2/20/4 76/13/4 98/12/4
f 8/120/90 7/27/90 75/10/90 73/9/90
