# Blender v2.91.0 OBJ File: 'charniere echaffaudage petit.blend'
# www.blender.org
mtllib charniere echaffaudage petit.mtl
o Cylindre.021_Cylindre.023
v 0.000000 -6.549400 -3.085492
v 1.542746 -6.549400 -2.672115
v 2.672115 -6.549400 -1.542746
v 3.085492 -6.549400 0.000000
v 2.672115 -6.549400 1.542746
v 1.542746 -6.549400 2.672115
v 0.000000 -6.549400 3.085492
v -1.542746 -6.549400 2.672115
v -2.672114 -6.549400 1.542747
v -3.085492 -6.549400 0.000001
v -2.672116 -6.549400 -1.542745
v -1.542748 -6.549400 -2.672114
v 1.542746 9.088286 -2.672115
v 2.672115 9.088286 -1.542746
v 3.085492 9.088286 0.000000
v 2.672115 9.088286 1.542746
v 1.542746 9.088286 2.672115
v 0.000000 9.088286 3.085492
v -1.542746 9.088286 2.672115
v -2.672114 9.088286 1.542747
v -3.085492 9.088286 0.000001
v -2.672116 9.088286 -1.542745
v -1.542748 9.088286 -2.672114
v 0.000000 9.088286 -3.085492
v 1.283049 1.269444 -2.222309
v 2.222307 1.269444 -1.283050
v 2.566099 1.269444 0.000000
v 2.222307 1.269444 1.283051
v 1.283049 1.269444 2.222309
v -0.000002 1.269444 2.566101
v -1.283052 1.269444 2.222309
v -2.222310 1.269444 1.283051
v -2.566103 1.269444 0.000001
v -2.222311 1.269444 -1.283049
v -1.283054 1.269444 -2.222308
v -0.000002 1.269443 -2.566101
v 1.542746 -5.211967 -2.672115
v 2.672115 -5.211967 -1.542746
v 3.085492 -5.211967 0.000000
v 2.672115 -5.211967 1.542746
v 1.542746 -5.211967 2.672115
v 0.000000 -5.211967 3.085492
v -1.542746 -5.211967 2.672115
v -2.672114 -5.211967 1.542747
v -3.085492 -5.211967 0.000001
v -2.672116 -5.211967 -1.542745
v -1.542748 -5.211967 -2.672114
v 0.000000 -5.211967 -3.085492
v 0.000000 8.062063 -3.085492
v 1.542746 8.062063 -2.672115
v 2.672115 8.062063 -1.542746
v 3.085492 8.062063 0.000000
v 2.672115 8.062063 1.542746
v 1.542746 8.062063 2.672115
v 0.000000 8.062063 3.085492
v -1.542746 8.062063 2.672115
v -2.672114 8.062063 1.542747
v -3.085492 8.062063 0.000001
v -2.672116 8.062063 -1.542745
v -1.542748 8.062063 -2.672114
v 0.000000 8.575174 -3.601958
v 1.800979 8.575175 -3.119387
v 3.119387 8.575175 -1.800979
v 3.601958 8.575175 0.000000
v 3.119387 8.575175 1.800979
v 1.800979 8.575175 3.119386
v 0.000001 8.575175 3.601957
v -1.800978 8.575175 3.119387
v -3.119386 8.575175 1.800980
v -3.601958 8.575175 0.000002
v -3.119388 8.575175 -1.800977
v -1.800981 8.575175 -3.119386
v 1.809714 -5.880683 -3.134513
v 3.134516 -5.880683 -1.809712
v 3.619427 -5.880683 0.000000
v 3.134515 -5.880683 1.809712
v 1.809714 -5.880683 3.134513
v 0.000003 -5.880683 3.619425
v -1.809709 -5.880683 3.134514
v -3.134511 -5.880683 1.809713
v -3.619422 -5.880683 0.000002
v -3.134512 -5.880683 -1.809711
v -1.809712 -5.880683 -3.134512
v 0.000002 -5.880683 -3.619425
vt 0.750000 0.490000
vt 0.870000 0.457846
vt 0.957846 0.370000
vt 0.990000 0.250000
vt 0.957846 0.130000
vt 0.870000 0.042154
vt 0.750000 0.010000
vt 0.630000 0.042154
vt 0.542154 0.130000
vt 0.510000 0.250000
vt 0.542154 0.370000
vt 0.630000 0.457846
vt 1.000000 0.670811
vt 1.000000 0.676606
vt 0.916667 0.676606
vt 0.916667 0.670811
vt 0.833333 0.676605
vt 0.833333 0.670811
vt 0.750000 0.676606
vt 0.750000 0.670811
vt 0.666667 0.676605
vt 0.666667 0.670811
vt 0.583333 0.676605
vt 0.583333 0.670811
vt 0.500000 0.676606
vt 0.500000 0.670811
vt 0.416667 0.676605
vt 0.416667 0.670811
vt 0.333333 0.676606
vt 0.333333 0.670811
vt 0.250000 0.676605
vt 0.250000 0.670811
vt 0.166667 0.676606
vt 0.166667 0.670811
vt 0.083333 0.676606
vt 0.083333 0.670811
vt 0.000000 0.676605
vt 0.000000 0.670811
vt 0.083333 0.515104
vt 0.083333 0.588303
vt 0.000000 0.588303
vt 0.000000 0.515104
vt 0.166667 0.515104
vt 0.166667 0.588303
vt 0.250000 0.515104
vt 0.250000 0.588303
vt 0.333333 0.515104
vt 0.333333 0.588303
vt 0.416667 0.515104
vt 0.416667 0.588303
vt 0.500000 0.515104
vt 0.500000 0.588303
vt 0.583333 0.515104
vt 0.583333 0.588303
vt 0.666667 0.515104
vt 0.666667 0.588303
vt 0.750000 0.515104
vt 0.750000 0.588303
vt 0.833333 0.515104
vt 0.833333 0.588303
vt 0.916667 0.515104
vt 0.916667 0.588303
vt 1.000000 0.515104
vt 1.000000 0.588303
vt 1.000000 0.507552
vt 0.916667 0.507552
vt 0.833333 0.507552
vt 0.750000 0.507552
vt 0.666667 0.507552
vt 0.583333 0.507552
vt 0.500000 0.507552
vt 0.416667 0.507552
vt 0.333333 0.507552
vt 0.250000 0.507552
vt 0.166667 0.507552
vt 0.083333 0.507552
vt 0.000000 0.507552
vt 0.083333 0.665016
vt 0.000000 0.665016
vt 0.166667 0.665016
vt 0.250000 0.665016
vt 0.333333 0.665016
vt 0.416667 0.665016
vt 0.500000 0.665016
vt 0.583333 0.665016
vt 0.666667 0.665016
vt 0.750000 0.665016
vt 0.833333 0.665016
vt 0.916667 0.665016
vt 1.000000 0.665016
vt 0.083333 0.500000
vt 0.000000 0.500000
vt 0.166667 0.500000
vt 0.250000 0.500000
vt 0.333333 0.500000
vt 0.416667 0.500000
vt 0.500000 0.500000
vt 0.583333 0.500000
vt 0.666667 0.500000
vt 0.750000 0.500000
vt 0.833333 0.500000
vt 0.916667 0.500000
vt 1.000000 0.500000
vn 0.0000 -1.0000 0.0000
vn 0.1856 0.6971 -0.6926
vn 0.5070 0.6971 -0.5070
vn 0.6926 0.6971 -0.1856
vn 0.6926 0.6971 0.1856
vn 0.5070 0.6971 0.5070
vn 0.1856 0.6971 0.6926
vn -0.1856 0.6971 0.6926
vn -0.5070 0.6971 0.5070
vn -0.6926 0.6971 0.1856
vn -0.6926 0.6971 -0.1856
vn -0.5070 0.6971 -0.5070
vn -0.1856 0.6971 -0.6926
vn -0.2580 0.0772 -0.9630
vn -0.7050 0.0772 -0.7050
vn -0.9630 0.0772 -0.2580
vn -0.9630 0.0772 0.2580
vn -0.7050 0.0772 0.7050
vn -0.2580 0.0772 0.9630
vn 0.2580 0.0772 0.9630
vn 0.7050 0.0772 0.7050
vn 0.9630 0.0772 0.2580
vn 0.9630 0.0772 -0.2580
vn 0.7050 0.0772 -0.7050
vn 0.2580 0.0772 -0.9630
vn 0.2049 0.6107 -0.7649
vn 0.5599 0.6107 -0.5599
vn 0.7649 0.6107 -0.2049
vn 0.7649 0.6107 0.2049
vn 0.5599 0.6107 0.5599
vn 0.2049 0.6107 0.7649
vn -0.2049 0.6107 0.7649
vn -0.5599 0.6107 0.5599
vn -0.7649 0.6107 0.2049
vn -0.7649 0.6107 -0.2049
vn -0.5599 0.6107 -0.5599
vn -0.2049 0.6107 -0.7649
vn 0.0000 1.0000 -0.0000
vn -0.2581 -0.0737 -0.9633
vn -0.7052 -0.0737 -0.7052
vn -0.9633 -0.0737 -0.2581
vn -0.9633 -0.0737 0.2581
vn -0.7052 -0.0737 0.7052
vn -0.2581 -0.0737 0.9633
vn 0.2581 -0.0737 0.9633
vn 0.7052 -0.0737 0.7052
vn 0.9633 -0.0737 0.2581
vn 0.9633 -0.0737 -0.2581
vn 0.7052 -0.0737 -0.7052
vn 0.2581 -0.0737 -0.9633
vn -0.1856 -0.6971 -0.6926
vn -0.5070 -0.6971 -0.5070
vn -0.6926 -0.6971 -0.1856
vn -0.6926 -0.6971 0.1856
vn -0.5070 -0.6971 0.5070
vn -0.1856 -0.6971 0.6926
vn 0.1856 -0.6971 0.6926
vn 0.5070 -0.6971 0.5070
vn 0.6926 -0.6971 0.1856
vn 0.6926 -0.6971 -0.1856
vn 0.5070 -0.6971 -0.5070
vn 0.1856 -0.6971 -0.6926
vn -0.2049 -0.6107 -0.7649
vn -0.5599 -0.6107 -0.5599
vn -0.7649 -0.6107 -0.2049
vn -0.7649 -0.6107 0.2049
vn -0.5599 -0.6107 0.5599
vn -0.2049 -0.6107 0.7649
vn 0.2049 -0.6107 0.7649
vn 0.5599 -0.6107 0.5599
vn 0.7649 -0.6107 0.2049
vn 0.7649 -0.6107 -0.2049
vn 0.5599 -0.6107 -0.5599
vn 0.2049 -0.6107 -0.7649
usemtl None
s off
f 1/1/1 2/2/1 3/3/1 4/4/1 5/5/1 6/6/1 7/7/1 8/8/1 9/9/1 10/10/1 11/11/1 12/12/1
f 61/13/2 24/14/2 13/15/2 62/16/2
f 62/16/3 13/15/3 14/17/3 63/18/3
f 63/18/4 14/17/4 15/19/4 64/20/4
f 64/20/5 15/19/5 16/21/5 65/22/5
f 65/22/6 16/21/6 17/23/6 66/24/6
f 66/24/7 17/23/7 18/25/7 67/26/7
f 67/26/8 18/25/8 19/27/8 68/28/8
f 68/28/9 19/27/9 20/29/9 69/30/9
f 69/30/10 20/29/10 21/31/10 70/32/10
f 70/32/11 21/31/11 22/33/11 71/34/11
f 71/34/12 22/33/12 23/35/12 72/36/12
f 72/36/13 23/35/13 24/37/13 61/38/13
f 47/39/14 35/40/14 36/41/14 48/42/14
f 46/43/15 34/44/15 35/40/15 47/39/15
f 45/45/16 33/46/16 34/44/16 46/43/16
f 44/47/17 32/48/17 33/46/17 45/45/17
f 43/49/18 31/50/18 32/48/18 44/47/18
f 42/51/19 30/52/19 31/50/19 43/49/19
f 41/53/20 29/54/20 30/52/20 42/51/20
f 40/55/21 28/56/21 29/54/21 41/53/21
f 39/57/22 27/58/22 28/56/22 40/55/22
f 38/59/23 26/60/23 27/58/23 39/57/23
f 37/61/24 25/62/24 26/60/24 38/59/24
f 48/63/25 36/64/25 25/62/25 37/61/25
f 84/65/26 48/63/26 37/61/26 73/66/26
f 73/66/27 37/61/27 38/59/27 74/67/27
f 74/67/28 38/59/28 39/57/28 75/68/28
f 75/68/29 39/57/29 40/55/29 76/69/29
f 76/69/30 40/55/30 41/53/30 77/70/30
f 77/70/31 41/53/31 42/51/31 78/71/31
f 78/71/32 42/51/32 43/49/32 79/72/32
f 79/72/33 43/49/33 44/47/33 80/73/33
f 80/73/34 44/47/34 45/45/34 81/74/34
f 81/74/35 45/45/35 46/43/35 82/75/35
f 82/75/36 46/43/36 47/39/36 83/76/36
f 83/76/37 47/39/37 48/42/37 84/77/37
f 24/37/38 23/35/38 22/33/38 21/31/38 20/29/38 19/27/38 18/25/38 17/23/38 16/21/38 15/19/38 14/17/38 13/15/38
f 35/40/39 60/78/39 49/79/39 36/41/39
f 34/44/40 59/80/40 60/78/40 35/40/40
f 33/46/41 58/81/41 59/80/41 34/44/41
f 32/48/42 57/82/42 58/81/42 33/46/42
f 31/50/43 56/83/43 57/82/43 32/48/43
f 30/52/44 55/84/44 56/83/44 31/50/44
f 29/54/45 54/85/45 55/84/45 30/52/45
f 28/56/46 53/86/46 54/85/46 29/54/46
f 27/58/47 52/87/47 53/86/47 28/56/47
f 26/60/48 51/88/48 52/87/48 27/58/48
f 25/62/49 50/89/49 51/88/49 26/60/49
f 36/64/50 49/90/50 50/89/50 25/62/50
f 60/78/51 72/36/51 61/38/51 49/79/51
f 59/80/52 71/34/52 72/36/52 60/78/52
f 58/81/53 70/32/53 71/34/53 59/80/53
f 57/82/54 69/30/54 70/32/54 58/81/54
f 56/83/55 68/28/55 69/30/55 57/82/55
f 55/84/56 67/26/56 68/28/56 56/83/56
f 54/85/57 66/24/57 67/26/57 55/84/57
f 53/86/58 65/22/58 66/24/58 54/85/58
f 52/87/59 64/20/59 65/22/59 53/86/59
f 51/88/60 63/18/60 64/20/60 52/87/60
f 50/89/61 62/16/61 63/18/61 51/88/61
f 49/90/62 61/13/62 62/16/62 50/89/62
f 12/91/63 83/76/63 84/77/63 1/92/63
f 11/93/64 82/75/64 83/76/64 12/91/64
f 10/94/65 81/74/65 82/75/65 11/93/65
f 9/95/66 80/73/66 81/74/66 10/94/66
f 8/96/67 79/72/67 80/73/67 9/95/67
f 7/97/68 78/71/68 79/72/68 8/96/68
f 6/98/69 77/70/69 78/71/69 7/97/69
f 5/99/70 76/69/70 77/70/70 6/98/70
f 4/100/71 75/68/71 76/69/71 5/99/71
f 3/101/72 74/67/72 75/68/72 4/100/72
f 2/102/73 73/66/73 74/67/73 3/101/73
f 1/103/74 84/65/74 73/66/74 2/102/74
