# Blender v2.91.0 OBJ File: 'charniere echaffaudage grand.blend'
# www.blender.org
mtllib charniere echaffaudage grand.mtl
o Cylindre.002_Cylindre.003
v 0.000000 -22.136465 -3.085492
v 0.000000 22.136465 -3.085492
v 1.542746 -22.136465 -2.672115
v 1.542746 22.136465 -2.672115
v 2.672115 -22.136465 -1.542746
v 2.672115 22.136465 -1.542746
v 3.085492 -22.136465 0.000000
v 3.085492 22.136465 0.000000
v 2.672115 -22.136465 1.542746
v 2.672115 22.136465 1.542746
v 1.542746 -22.136465 2.672115
v 1.542746 22.136465 2.672115
v 0.000000 -22.136465 3.085492
v 0.000000 22.136465 3.085492
v -1.542746 -22.136465 2.672115
v -1.542746 22.136465 2.672115
v -2.672114 -22.136465 1.542747
v -2.672114 22.136465 1.542747
v -3.085492 -22.136465 0.000001
v -3.085492 22.136465 0.000001
v -2.672116 -22.136465 -1.542745
v -2.672116 22.136465 -1.542745
v -1.542748 -22.136465 -2.672114
v -1.542748 22.136465 -2.672114
v 0.000000 9.545081 -3.085492
v 1.542746 9.545081 -2.672115
v 2.672115 9.545081 -1.542746
v 3.085492 9.545081 0.000000
v 2.672115 9.545081 1.542746
v 1.542746 9.545081 2.672115
v 0.000000 9.545081 3.085492
v -1.542746 9.545081 2.672115
v -2.672114 9.545081 1.542747
v -3.085492 9.545081 0.000001
v -2.672116 9.545081 -1.542745
v -1.542748 9.545081 -2.672114
v 1.542746 -6.498778 -2.672115
v 2.672115 -6.498778 -1.542746
v 3.085492 -6.498778 0.000000
v 2.672115 -6.498778 1.542746
v 1.542746 -6.498778 2.672115
v 0.000000 -6.498778 3.085492
v -1.542746 -6.498778 2.672115
v -2.672114 -6.498778 1.542747
v -3.085492 -6.498778 0.000001
v -2.672116 -6.498778 -1.542745
v -1.542748 -6.498778 -2.672114
v 0.000000 -6.498779 -3.085492
v 0.000000 15.840773 -2.553150
v 1.276575 15.840773 -2.211092
v 2.211093 15.840773 -1.276575
v 2.553150 15.840773 0.000000
v 2.211092 15.840773 1.276575
v 1.276575 15.840773 2.211093
v 0.000000 15.840773 2.553150
v -1.276574 15.840773 2.211093
v -2.211092 15.840773 1.276576
v -2.553150 15.840773 0.000001
v -2.211093 15.840773 -1.276574
v -1.276577 15.840773 -2.211092
v 0.000000 1.523151 -2.668643
v 1.334322 1.523151 -2.311113
v 2.311113 1.523151 -1.334322
v 2.668644 1.523151 0.000000
v 2.311113 1.523151 1.334322
v 1.334322 1.523151 2.311113
v 0.000000 1.523151 2.668644
v -1.334321 1.523151 2.311113
v -2.311113 1.523151 1.334323
v -2.668644 1.523151 0.000001
v -2.311114 1.523151 -1.334320
v -1.334323 1.523151 -2.311112
v 1.283049 -14.317621 -2.222309
v 2.222307 -14.317621 -1.283050
v 2.566099 -14.317621 0.000000
v 2.222307 -14.317621 1.283051
v 1.283049 -14.317621 2.222309
v -0.000002 -14.317621 2.566101
v -1.283052 -14.317621 2.222309
v -2.222310 -14.317621 1.283051
v -2.566103 -14.317621 0.000001
v -2.222311 -14.317621 -1.283049
v -1.283054 -14.317621 -2.222308
v -0.000002 -14.317622 -2.566101
v 1.542746 -20.799032 -2.672115
v 2.672115 -20.799032 -1.542746
v 3.085492 -20.799032 0.000000
v 2.672115 -20.799032 1.542746
v 1.542746 -20.799032 2.672115
v 0.000000 -20.799032 3.085492
v -1.542746 -20.799032 2.672115
v -2.672114 -20.799032 1.542747
v -3.085492 -20.799032 0.000001
v -2.672116 -20.799032 -1.542745
v -1.542748 -20.799032 -2.672114
v 0.000000 -20.799032 -3.085492
v 0.000000 21.200619 -3.085492
v 1.542746 21.200619 -2.672115
v 2.672115 21.200619 -1.542746
v 3.085492 21.200619 0.000000
v 2.672115 21.200619 1.542746
v 1.542746 21.200619 2.672115
v 0.000000 21.200619 3.085492
v -1.542746 21.200619 2.672115
v -2.672114 21.200619 1.542747
v -3.085492 21.200619 0.000001
v -2.672116 21.200619 -1.542745
v -1.542748 21.200619 -2.672114
v 0.000000 8.521005 -3.085492
v 1.542746 8.521005 -2.672115
v 2.672115 8.521005 -1.542746
v 3.085492 8.521005 0.000000
v 2.672115 8.521005 1.542746
v 1.542746 8.521005 2.672115
v 0.000000 8.521005 3.085492
v -1.542746 8.521005 2.672115
v -2.672114 8.521005 1.542747
v -3.085492 8.521005 0.000001
v -2.672116 8.521005 -1.542745
v -1.542748 8.521005 -2.672114
v 0.000000 9.033043 -3.522080
v 1.761040 9.033043 -3.050211
v 3.050211 9.033043 -1.761040
v 3.522080 9.033043 0.000000
v 3.050211 9.033043 1.761040
v 1.761040 9.033043 3.050211
v 0.000001 9.033043 3.522080
v -1.761039 9.033043 3.050211
v -3.050210 9.033043 1.761041
v -3.522080 9.033043 0.000002
v -3.050212 9.033043 -1.761038
v -1.761042 9.033043 -3.050210
v 0.000000 -7.525002 -3.085492
v 1.542746 -7.525002 -2.672115
v 2.672115 -7.525002 -1.542746
v 3.085492 -7.525002 0.000000
v 2.672115 -7.525002 1.542746
v 1.542746 -7.525002 2.672115
v 0.000000 -7.525002 3.085492
v -1.542746 -7.525002 2.672115
v -2.672114 -7.525002 1.542747
v -3.085492 -7.525002 0.000001
v -2.672116 -7.525002 -1.542745
v -1.542748 -7.525002 -2.672114
v 0.000000 -7.011891 -3.601958
v 1.800979 -7.011890 -3.119387
v 3.119387 -7.011890 -1.800979
v 3.601958 -7.011890 0.000000
v 3.119387 -7.011890 1.800979
v 1.800979 -7.011890 3.119386
v 0.000001 -7.011890 3.601957
v -1.800978 -7.011890 3.119387
v -3.119386 -7.011890 1.800980
v -3.601958 -7.011890 0.000002
v -3.119388 -7.011890 -1.800977
v -1.800981 -7.011890 -3.119386
v 1.809714 -21.467749 -3.134513
v 3.134516 -21.467749 -1.809712
v 3.619427 -21.467749 0.000000
v 3.134515 -21.467749 1.809712
v 1.809714 -21.467749 3.134513
v 0.000003 -21.467749 3.619425
v -1.809709 -21.467749 3.134514
v -3.134511 -21.467749 1.809713
v -3.619422 -21.467749 0.000002
v -3.134512 -21.467749 -1.809711
v -1.809712 -21.467749 -3.134512
v 0.000002 -21.467749 -3.619425
v 0.000000 21.668543 -3.477075
v 1.738538 21.668543 -3.011235
v 3.011235 21.668543 -1.738537
v 3.477075 21.668543 0.000000
v 3.011235 21.668543 1.738538
v 1.738538 21.668543 3.011235
v 0.000001 21.668543 3.477075
v -1.738537 21.668543 3.011236
v -3.011235 21.668543 1.738539
v -3.477075 21.668543 0.000002
v -3.011236 21.668543 -1.738536
v -1.738540 21.668543 -3.011234
vt 1.000000 0.994715
vt 1.000000 1.000000
vt 0.916667 1.000000
vt 0.916667 0.994715
vt 0.833333 1.000000
vt 0.833333 0.994715
vt 0.750000 1.000000
vt 0.750000 0.994715
vt 0.666667 1.000000
vt 0.666667 0.994716
vt 0.583333 1.000000
vt 0.583333 0.994715
vt 0.500000 1.000000
vt 0.500000 0.994716
vt 0.416667 1.000000
vt 0.416667 0.994715
vt 0.333333 1.000000
vt 0.333333 0.994715
vt 0.250000 1.000000
vt 0.250000 0.994715
vt 0.166667 1.000000
vt 0.166667 0.994715
vt 0.370000 0.457846
vt 0.250000 0.490000
vt 0.130000 0.457846
vt 0.042154 0.370000
vt 0.010000 0.250000
vt 0.042154 0.130000
vt 0.130000 0.042154
vt 0.250000 0.010000
vt 0.370000 0.042154
vt 0.457846 0.130000
vt 0.490000 0.250000
vt 0.457846 0.370000
vt 0.083333 1.000000
vt 0.083333 0.994715
vt 0.000000 1.000000
vt 0.000000 0.994715
vt 0.750000 0.490000
vt 0.870000 0.457846
vt 0.957846 0.370000
vt 0.990000 0.250000
vt 0.957846 0.130000
vt 0.870000 0.042154
vt 0.750000 0.010000
vt 0.630000 0.042154
vt 0.542154 0.130000
vt 0.510000 0.250000
vt 0.542154 0.370000
vt 0.630000 0.457846
vt 0.083333 0.852015
vt 0.083333 0.857798
vt 0.000000 0.857798
vt 0.000000 0.852015
vt 0.166667 0.852015
vt 0.166667 0.857798
vt 0.250000 0.852015
vt 0.250000 0.857798
vt 0.333333 0.852015
vt 0.333333 0.857798
vt 0.416667 0.852015
vt 0.416667 0.857798
vt 0.500000 0.852015
vt 0.500000 0.857798
vt 0.583333 0.852015
vt 0.583333 0.857798
vt 0.666667 0.852015
vt 0.666667 0.857798
vt 0.750000 0.852015
vt 0.750000 0.857798
vt 0.833333 0.852015
vt 0.833333 0.857798
vt 0.916667 0.852015
vt 0.916667 0.857798
vt 1.000000 0.852015
vt 1.000000 0.857798
vt 1.000000 0.670811
vt 1.000000 0.676606
vt 0.916667 0.676606
vt 0.916667 0.670811
vt 0.833333 0.676605
vt 0.833333 0.670811
vt 0.750000 0.676606
vt 0.750000 0.670811
vt 0.666667 0.676605
vt 0.666667 0.670811
vt 0.583333 0.676605
vt 0.583333 0.670811
vt 0.500000 0.676606
vt 0.500000 0.670811
vt 0.416667 0.676605
vt 0.416667 0.670811
vt 0.333333 0.676606
vt 0.333333 0.670811
vt 0.250000 0.676605
vt 0.250000 0.670811
vt 0.166667 0.676606
vt 0.166667 0.670811
vt 0.083333 0.676606
vt 0.083333 0.670811
vt 0.000000 0.676605
vt 0.000000 0.670811
vt 0.083333 0.928899
vt 0.000000 0.928899
vt 0.166667 0.928899
vt 0.250000 0.928899
vt 0.333333 0.928899
vt 0.416667 0.928899
vt 0.500000 0.928899
vt 0.583333 0.928899
vt 0.666667 0.928899
vt 0.750000 0.928899
vt 0.833333 0.928899
vt 0.916667 0.928899
vt 1.000000 0.928899
vt 1.000000 0.767202
vt 0.916667 0.767202
vt 0.833333 0.767202
vt 0.750000 0.767202
vt 0.666667 0.767202
vt 0.583333 0.767202
vt 0.500000 0.767202
vt 0.416667 0.767202
vt 0.333333 0.767202
vt 0.250000 0.767202
vt 0.166667 0.767202
vt 0.083333 0.767202
vt 0.000000 0.767202
vt 0.083333 0.515104
vt 0.083333 0.588303
vt 0.000000 0.588303
vt 0.000000 0.515104
vt 0.166667 0.515104
vt 0.166667 0.588303
vt 0.250000 0.515104
vt 0.250000 0.588303
vt 0.333333 0.515104
vt 0.333333 0.588303
vt 0.416667 0.515104
vt 0.416667 0.588303
vt 0.500000 0.515104
vt 0.500000 0.588303
vt 0.583333 0.515104
vt 0.583333 0.588303
vt 0.666667 0.515104
vt 0.666667 0.588303
vt 0.750000 0.515104
vt 0.750000 0.588303
vt 0.833333 0.515104
vt 0.833333 0.588303
vt 0.916667 0.515104
vt 0.916667 0.588303
vt 1.000000 0.515104
vt 1.000000 0.588303
vt 1.000000 0.507552
vt 0.916667 0.507552
vt 0.833333 0.507552
vt 0.750000 0.507552
vt 0.666667 0.507552
vt 0.583333 0.507552
vt 0.500000 0.507552
vt 0.416667 0.507552
vt 0.333333 0.507552
vt 0.250000 0.507552
vt 0.166667 0.507552
vt 0.083333 0.507552
vt 0.000000 0.507552
vt 0.083333 0.989431
vt 0.000000 0.989431
vt 0.166667 0.989431
vt 0.250000 0.989431
vt 0.333333 0.989431
vt 0.416667 0.989431
vt 0.500000 0.989431
vt 0.583333 0.989431
vt 0.666667 0.989431
vt 0.750000 0.989431
vt 0.833333 0.989431
vt 0.916667 0.989431
vt 1.000000 0.989431
vt 1.000000 0.846233
vt 0.916667 0.846233
vt 0.833333 0.846233
vt 0.750000 0.846233
vt 0.666667 0.846233
vt 0.583333 0.846233
vt 0.500000 0.846233
vt 0.416667 0.846233
vt 0.333333 0.846233
vt 0.250000 0.846233
vt 0.166667 0.846233
vt 0.083333 0.846233
vt 0.000000 0.846233
vt 0.083333 0.665016
vt 0.000000 0.665016
vt 0.166667 0.665016
vt 0.250000 0.665016
vt 0.333333 0.665016
vt 0.416667 0.665016
vt 0.500000 0.665016
vt 0.583333 0.665016
vt 0.666667 0.665016
vt 0.750000 0.665016
vt 0.833333 0.665016
vt 0.916667 0.665016
vt 1.000000 0.665016
vt 0.083333 0.500000
vt 0.000000 0.500000
vt 0.166667 0.500000
vt 0.250000 0.500000
vt 0.333333 0.500000
vt 0.416667 0.500000
vt 0.500000 0.500000
vt 0.583333 0.500000
vt 0.666667 0.500000
vt 0.750000 0.500000
vt 0.833333 0.500000
vt 0.916667 0.500000
vt 1.000000 0.500000
vn 0.2013 0.6286 -0.7512
vn 0.5499 0.6286 -0.5499
vn 0.7512 0.6286 -0.2013
vn 0.7512 0.6286 0.2013
vn 0.5499 0.6286 0.5499
vn 0.2013 0.6286 0.7512
vn -0.2013 0.6286 0.7512
vn -0.5499 0.6286 0.5499
vn -0.7512 0.6286 0.2013
vn -0.7512 0.6286 -0.2013
vn 0.0000 1.0000 0.0000
vn -0.5499 0.6286 -0.5499
vn -0.2013 0.6286 -0.7512
vn 0.0000 -1.0000 -0.0000
vn -0.1998 0.6357 -0.7456
vn -0.5458 0.6357 -0.5458
vn -0.7456 0.6357 -0.1998
vn -0.7456 0.6357 0.1998
vn -0.5458 0.6357 0.5458
vn -0.1998 0.6357 0.7456
vn 0.1998 0.6357 0.7456
vn 0.5458 0.6357 0.5458
vn 0.7456 0.6357 0.1998
vn 0.7456 0.6357 -0.1998
vn 0.5458 0.6357 -0.5458
vn 0.1998 0.6357 -0.7456
vn 0.1856 0.6971 -0.6926
vn 0.5070 0.6971 -0.5070
vn 0.6926 0.6971 -0.1856
vn 0.6926 0.6971 0.1856
vn 0.5070 0.6971 0.5070
vn 0.1856 0.6971 0.6926
vn -0.1856 0.6971 0.6926
vn -0.5070 0.6971 0.5070
vn -0.6926 0.6971 0.1856
vn -0.6926 0.6971 -0.1856
vn -0.5070 0.6971 -0.5070
vn -0.1856 0.6971 -0.6926
vn -0.2580 0.0814 -0.9627
vn -0.7048 0.0814 -0.7048
vn -0.9627 0.0814 -0.2580
vn -0.9627 0.0814 0.2580
vn -0.7048 0.0814 0.7048
vn -0.2580 0.0814 0.9627
vn 0.2580 0.0814 0.9627
vn 0.7048 0.0814 0.7048
vn 0.9627 0.0814 0.2580
vn 0.9627 0.0814 -0.2580
vn 0.7048 0.0814 -0.7048
vn 0.2580 0.0814 -0.9627
vn 0.2585 0.0501 -0.9647
vn 0.7062 0.0501 -0.7062
vn 0.9647 0.0501 -0.2585
vn 0.9647 0.0501 0.2585
vn 0.7062 0.0501 0.7062
vn 0.2585 0.0501 0.9647
vn -0.2585 0.0501 0.9647
vn -0.7062 0.0501 0.7062
vn -0.9647 0.0501 0.2585
vn -0.9647 0.0501 -0.2585
vn -0.7062 0.0501 -0.7062
vn -0.2585 0.0501 -0.9647
vn -0.2580 0.0772 -0.9630
vn -0.7050 0.0772 -0.7050
vn -0.9630 0.0772 -0.2580
vn -0.9630 0.0772 0.2580
vn -0.7050 0.0772 0.7050
vn -0.2580 0.0772 0.9630
vn 0.2580 0.0772 0.9630
vn 0.7050 0.0772 0.7050
vn 0.9630 0.0772 0.2580
vn 0.9630 0.0772 -0.2580
vn 0.7050 0.0772 -0.7050
vn 0.2580 0.0772 -0.9630
vn 0.2049 0.6107 -0.7649
vn 0.5599 0.6107 -0.5599
vn 0.7649 0.6107 -0.2049
vn 0.7649 0.6107 0.2049
vn 0.5599 0.6107 0.5599
vn 0.2049 0.6107 0.7649
vn -0.2049 0.6107 0.7649
vn -0.5599 0.6107 0.5599
vn -0.7649 0.6107 0.2049
vn -0.7649 0.6107 -0.2049
vn -0.5599 0.6107 -0.5599
vn -0.2049 0.6107 -0.7649
vn -0.2576 -0.0955 -0.9615
vn -0.7039 -0.0955 -0.7039
vn -0.9615 -0.0955 -0.2576
vn -0.9615 -0.0955 0.2576
vn -0.7039 -0.0955 0.7039
vn -0.2576 -0.0955 0.9615
vn 0.2576 -0.0955 0.9615
vn 0.7039 -0.0955 0.7039
vn 0.9615 -0.0955 0.2576
vn 0.9615 -0.0955 -0.2576
vn 0.7039 -0.0955 -0.7039
vn 0.2576 -0.0955 -0.9615
vn 0.2584 -0.0574 -0.9643
vn 0.7059 -0.0574 -0.7059
vn 0.9643 -0.0574 -0.2584
vn 0.9643 -0.0574 0.2584
vn 0.7059 -0.0574 0.7059
vn 0.2584 -0.0574 0.9643
vn -0.2584 -0.0574 0.9643
vn -0.7059 -0.0574 0.7059
vn -0.9643 -0.0574 0.2584
vn -0.9643 -0.0574 -0.2584
vn -0.7059 -0.0574 -0.7059
vn -0.2584 -0.0574 -0.9643
vn 0.1998 -0.6357 -0.7456
vn 0.5458 -0.6357 -0.5458
vn 0.7456 -0.6357 -0.1998
vn 0.7456 -0.6357 0.1998
vn 0.5458 -0.6357 0.5458
vn 0.1998 -0.6357 0.7456
vn -0.1998 -0.6357 0.7456
vn -0.5458 -0.6357 0.5458
vn -0.7456 -0.6357 0.1998
vn -0.7456 -0.6357 -0.1998
vn -0.5458 -0.6357 -0.5458
vn -0.1998 -0.6357 -0.7456
vn -0.2581 -0.0737 -0.9633
vn -0.7052 -0.0737 -0.7052
vn -0.9633 -0.0737 -0.2581
vn -0.9633 -0.0737 0.2581
vn -0.7052 -0.0737 0.7052
vn -0.2581 -0.0737 0.9633
vn 0.2581 -0.0737 0.9633
vn 0.7052 -0.0737 0.7052
vn 0.9633 -0.0737 0.2581
vn 0.9633 -0.0737 -0.2581
vn 0.7052 -0.0737 -0.7052
vn 0.2581 -0.0737 -0.9633
vn -0.1856 -0.6971 -0.6926
vn -0.5070 -0.6971 -0.5070
vn -0.6926 -0.6971 -0.1856
vn -0.6926 -0.6971 0.1856
vn -0.5070 -0.6971 0.5070
vn -0.1856 -0.6971 0.6926
vn 0.1856 -0.6971 0.6926
vn 0.5070 -0.6971 0.5070
vn 0.6926 -0.6971 0.1856
vn 0.6926 -0.6971 -0.1856
vn 0.5070 -0.6971 -0.5070
vn 0.1856 -0.6971 -0.6926
vn -0.2049 -0.6107 -0.7649
vn -0.5599 -0.6107 -0.5599
vn -0.7649 -0.6107 -0.2049
vn -0.7649 -0.6107 0.2049
vn -0.5599 -0.6107 0.5599
vn -0.2049 -0.6107 0.7649
vn 0.2049 -0.6107 0.7649
vn 0.5599 -0.6107 0.5599
vn 0.7649 -0.6107 0.2049
vn 0.7649 -0.6107 -0.2049
vn 0.5599 -0.6107 -0.5599
vn 0.2049 -0.6107 -0.7649
vn -0.2013 -0.6286 -0.7512
vn -0.5499 -0.6286 -0.5499
vn -0.7512 -0.6286 -0.2013
vn -0.7512 -0.6286 0.2013
vn -0.5499 -0.6286 0.5499
vn -0.2013 -0.6286 0.7512
vn 0.2013 -0.6286 0.7512
vn 0.5499 -0.6286 0.5499
vn 0.7512 -0.6286 0.2013
vn 0.7512 -0.6286 -0.2013
vn 0.5499 -0.6286 -0.5499
vn 0.2013 -0.6286 -0.7512
usemtl None
s off
f 169/1/1 2/2/1 4/3/1 170/4/1
f 170/4/2 4/3/2 6/5/2 171/6/2
f 171/6/3 6/5/3 8/7/3 172/8/3
f 172/8/4 8/7/4 10/9/4 173/10/4
f 173/10/5 10/9/5 12/11/5 174/12/5
f 174/12/6 12/11/6 14/13/6 175/14/6
f 175/14/7 14/13/7 16/15/7 176/16/7
f 176/16/8 16/15/8 18/17/8 177/18/8
f 177/18/9 18/17/9 20/19/9 178/20/9
f 178/20/10 20/19/10 22/21/10 179/22/10
f 4/23/11 2/24/11 24/25/11 22/26/11 20/27/11 18/28/11 16/29/11 14/30/11 12/31/11 10/32/11 8/33/11 6/34/11
f 179/22/12 22/21/12 24/35/12 180/36/12
f 180/36/13 24/35/13 2/37/13 169/38/13
f 1/39/14 3/40/14 5/41/14 7/42/14 9/43/14 11/44/14 13/45/14 15/46/14 17/47/14 19/48/14 21/49/14 23/50/14
f 132/51/15 36/52/15 25/53/15 121/54/15
f 131/55/16 35/56/16 36/52/16 132/51/16
f 130/57/17 34/58/17 35/56/17 131/55/17
f 129/59/18 33/60/18 34/58/18 130/57/18
f 128/61/19 32/62/19 33/60/19 129/59/19
f 127/63/20 31/64/20 32/62/20 128/61/20
f 126/65/21 30/66/21 31/64/21 127/63/21
f 125/67/22 29/68/22 30/66/22 126/65/22
f 124/69/23 28/70/23 29/68/23 125/67/23
f 123/71/24 27/72/24 28/70/24 124/69/24
f 122/73/25 26/74/25 27/72/25 123/71/25
f 121/75/26 25/76/26 26/74/26 122/73/26
f 145/77/27 48/78/27 37/79/27 146/80/27
f 146/80/28 37/79/28 38/81/28 147/82/28
f 147/82/29 38/81/29 39/83/29 148/84/29
f 148/84/30 39/83/30 40/85/30 149/86/30
f 149/86/31 40/85/31 41/87/31 150/88/31
f 150/88/32 41/87/32 42/89/32 151/90/32
f 151/90/33 42/89/33 43/91/33 152/92/33
f 152/92/34 43/91/34 44/93/34 153/94/34
f 153/94/35 44/93/35 45/95/35 154/96/35
f 154/96/36 45/95/36 46/97/36 155/98/36
f 155/98/37 46/97/37 47/99/37 156/100/37
f 156/100/38 47/99/38 48/101/38 145/102/38
f 36/52/39 60/103/39 49/104/39 25/53/39
f 35/56/40 59/105/40 60/103/40 36/52/40
f 34/58/41 58/106/41 59/105/41 35/56/41
f 33/60/42 57/107/42 58/106/42 34/58/42
f 32/62/43 56/108/43 57/107/43 33/60/43
f 31/64/44 55/109/44 56/108/44 32/62/44
f 30/66/45 54/110/45 55/109/45 31/64/45
f 29/68/46 53/111/46 54/110/46 30/66/46
f 28/70/47 52/112/47 53/111/47 29/68/47
f 27/72/48 51/113/48 52/112/48 28/70/48
f 26/74/49 50/114/49 51/113/49 27/72/49
f 25/76/50 49/115/50 50/114/50 26/74/50
f 48/78/51 61/116/51 62/117/51 37/79/51
f 37/79/52 62/117/52 63/118/52 38/81/52
f 38/81/53 63/118/53 64/119/53 39/83/53
f 39/83/54 64/119/54 65/120/54 40/85/54
f 40/85/55 65/120/55 66/121/55 41/87/55
f 41/87/56 66/121/56 67/122/56 42/89/56
f 42/89/57 67/122/57 68/123/57 43/91/57
f 43/91/58 68/123/58 69/124/58 44/93/58
f 44/93/59 69/124/59 70/125/59 45/95/59
f 45/95/60 70/125/60 71/126/60 46/97/60
f 46/97/61 71/126/61 72/127/61 47/99/61
f 47/99/62 72/127/62 61/128/62 48/101/62
f 95/129/63 83/130/63 84/131/63 96/132/63
f 94/133/64 82/134/64 83/130/64 95/129/64
f 93/135/65 81/136/65 82/134/65 94/133/65
f 92/137/66 80/138/66 81/136/66 93/135/66
f 91/139/67 79/140/67 80/138/67 92/137/67
f 90/141/68 78/142/68 79/140/68 91/139/68
f 89/143/69 77/144/69 78/142/69 90/141/69
f 88/145/70 76/146/70 77/144/70 89/143/70
f 87/147/71 75/148/71 76/146/71 88/145/71
f 86/149/72 74/150/72 75/148/72 87/147/72
f 85/151/73 73/152/73 74/150/73 86/149/73
f 96/153/74 84/154/74 73/152/74 85/151/74
f 168/155/75 96/153/75 85/151/75 157/156/75
f 157/156/76 85/151/76 86/149/76 158/157/76
f 158/157/77 86/149/77 87/147/77 159/158/77
f 159/158/78 87/147/78 88/145/78 160/159/78
f 160/159/79 88/145/79 89/143/79 161/160/79
f 161/160/80 89/143/80 90/141/80 162/161/80
f 162/161/81 90/141/81 91/139/81 163/162/81
f 163/162/82 91/139/82 92/137/82 164/163/82
f 164/163/83 92/137/83 93/135/83 165/164/83
f 165/164/84 93/135/84 94/133/84 166/165/84
f 166/165/85 94/133/85 95/129/85 167/166/85
f 167/166/86 95/129/86 96/132/86 168/167/86
f 60/103/87 108/168/87 97/169/87 49/104/87
f 59/105/88 107/170/88 108/168/88 60/103/88
f 58/106/89 106/171/89 107/170/89 59/105/89
f 57/107/90 105/172/90 106/171/90 58/106/90
f 56/108/91 104/173/91 105/172/91 57/107/91
f 55/109/92 103/174/92 104/173/92 56/108/92
f 54/110/93 102/175/93 103/174/93 55/109/93
f 53/111/94 101/176/94 102/175/94 54/110/94
f 52/112/95 100/177/95 101/176/95 53/111/95
f 51/113/96 99/178/96 100/177/96 52/112/96
f 50/114/97 98/179/97 99/178/97 51/113/97
f 49/115/98 97/180/98 98/179/98 50/114/98
f 61/116/99 109/181/99 110/182/99 62/117/99
f 62/117/100 110/182/100 111/183/100 63/118/100
f 63/118/101 111/183/101 112/184/101 64/119/101
f 64/119/102 112/184/102 113/185/102 65/120/102
f 65/120/103 113/185/103 114/186/103 66/121/103
f 66/121/104 114/186/104 115/187/104 67/122/104
f 67/122/105 115/187/105 116/188/105 68/123/105
f 68/123/106 116/188/106 117/189/106 69/124/106
f 69/124/107 117/189/107 118/190/107 70/125/107
f 70/125/108 118/190/108 119/191/108 71/126/108
f 71/126/109 119/191/109 120/192/109 72/127/109
f 72/127/110 120/192/110 109/193/110 61/128/110
f 109/181/111 121/75/111 122/73/111 110/182/111
f 110/182/112 122/73/112 123/71/112 111/183/112
f 111/183/113 123/71/113 124/69/113 112/184/113
f 112/184/114 124/69/114 125/67/114 113/185/114
f 113/185/115 125/67/115 126/65/115 114/186/115
f 114/186/116 126/65/116 127/63/116 115/187/116
f 115/187/117 127/63/117 128/61/117 116/188/117
f 116/188/118 128/61/118 129/59/118 117/189/118
f 117/189/119 129/59/119 130/57/119 118/190/119
f 118/190/120 130/57/120 131/55/120 119/191/120
f 119/191/121 131/55/121 132/51/121 120/192/121
f 120/192/122 132/51/122 121/54/122 109/193/122
f 83/130/123 144/194/123 133/195/123 84/131/123
f 82/134/124 143/196/124 144/194/124 83/130/124
f 81/136/125 142/197/125 143/196/125 82/134/125
f 80/138/126 141/198/126 142/197/126 81/136/126
f 79/140/127 140/199/127 141/198/127 80/138/127
f 78/142/128 139/200/128 140/199/128 79/140/128
f 77/144/129 138/201/129 139/200/129 78/142/129
f 76/146/130 137/202/130 138/201/130 77/144/130
f 75/148/131 136/203/131 137/202/131 76/146/131
f 74/150/132 135/204/132 136/203/132 75/148/132
f 73/152/133 134/205/133 135/204/133 74/150/133
f 84/154/134 133/206/134 134/205/134 73/152/134
f 144/194/135 156/100/135 145/102/135 133/195/135
f 143/196/136 155/98/136 156/100/136 144/194/136
f 142/197/137 154/96/137 155/98/137 143/196/137
f 141/198/138 153/94/138 154/96/138 142/197/138
f 140/199/139 152/92/139 153/94/139 141/198/139
f 139/200/140 151/90/140 152/92/140 140/199/140
f 138/201/141 150/88/141 151/90/141 139/200/141
f 137/202/142 149/86/142 150/88/142 138/201/142
f 136/203/143 148/84/143 149/86/143 137/202/143
f 135/204/144 147/82/144 148/84/144 136/203/144
f 134/205/145 146/80/145 147/82/145 135/204/145
f 133/206/146 145/77/146 146/80/146 134/205/146
f 23/207/147 167/166/147 168/167/147 1/208/147
f 21/209/148 166/165/148 167/166/148 23/207/148
f 19/210/149 165/164/149 166/165/149 21/209/149
f 17/211/150 164/163/150 165/164/150 19/210/150
f 15/212/151 163/162/151 164/163/151 17/211/151
f 13/213/152 162/161/152 163/162/152 15/212/152
f 11/214/153 161/160/153 162/161/153 13/213/153
f 9/215/154 160/159/154 161/160/154 11/214/154
f 7/216/155 159/158/155 160/159/155 9/215/155
f 5/217/156 158/157/156 159/158/156 7/216/156
f 3/218/157 157/156/157 158/157/157 5/217/157
f 1/219/158 168/155/158 157/156/158 3/218/158
f 108/168/159 180/36/159 169/38/159 97/169/159
f 107/170/160 179/22/160 180/36/160 108/168/160
f 106/171/161 178/20/161 179/22/161 107/170/161
f 105/172/162 177/18/162 178/20/162 106/171/162
f 104/173/163 176/16/163 177/18/163 105/172/163
f 103/174/164 175/14/164 176/16/164 104/173/164
f 102/175/165 174/12/165 175/14/165 103/174/165
f 101/176/166 173/10/166 174/12/166 102/175/166
f 100/177/167 172/8/167 173/10/167 101/176/167
f 99/178/168 171/6/168 172/8/168 100/177/168
f 98/179/169 170/4/169 171/6/169 99/178/169
f 97/180/170 169/1/170 170/4/170 98/179/170
