# Blender v2.91.0 OBJ File: 'stalacmite 6.blend'
# www.blender.org
mtllib stalacmite 4.mtl
o Cube
v 1.968472 0.726078 -1.996461
v 3.540815 -0.726078 -3.591160
v 1.968472 0.726078 1.996461
v 3.540815 -0.726078 3.591160
v -1.968472 0.726078 -1.996461
v -3.540815 -0.726078 -3.591160
v -1.968472 0.726078 1.996461
v -3.540815 -0.726078 3.591160
v 1.651868 2.611806 1.675355
v -1.651868 2.611806 1.675355
v 1.651868 2.611806 -1.675355
v -1.651868 2.611806 -1.675355
v 1.517048 3.598170 1.538618
v -1.517048 3.598170 1.538618
v 1.517048 3.598170 -1.538618
v -1.517048 3.598170 -1.538618
v 1.871437 5.351501 1.898046
v -1.871437 5.351501 1.898046
v 1.871437 5.351501 -1.898046
v -1.871437 5.351501 -1.898046
v 1.126469 8.575737 1.142486
v -1.126469 8.575737 1.142486
v 1.126469 8.575737 -1.142486
v -1.126469 8.575737 -1.142486
v 0.181093 10.904510 0.183668
v -0.181093 10.904510 0.183668
v 0.181093 10.904510 -0.183668
v -0.181093 10.904510 -0.183668
v -6.572499 -0.726078 0.000000
v 3.359599 0.726078 0.000000
v -1.968472 0.726078 0.000000
v 5.524129 -0.726078 0.000000
v 1.651868 2.611806 0.000000
v -2.179204 2.611806 0.000000
v 2.242523 3.598170 0.000000
v -1.268935 3.598170 -0.007626
v 1.871437 5.351501 0.000000
v -2.400689 5.351501 0.000000
v 1.636306 8.575737 0.000000
v -0.947886 8.575737 0.000000
v 0.181093 10.904510 0.000000
v -0.181093 10.904510 0.000000
v 0.000000 -0.726078 -5.041420
v 0.000000 0.726078 4.203525
v 0.000000 -0.726078 5.524490
v 0.000000 0.726078 -2.844876
v 0.000000 2.611806 1.675355
v 0.000000 2.611806 -2.138907
v 0.000000 3.598170 2.215719
v 0.000000 3.598170 -0.943545
v 0.000000 5.351501 1.408098
v 0.000000 5.351501 -1.805924
v 0.000000 8.575737 1.142486
v 0.000000 8.575737 -1.894037
v 0.000000 10.904510 0.183668
v 0.000000 10.904510 -0.183668
v 0.000000 10.904510 0.000000
v 0.000000 -0.726078 0.000000
vt 0.625000 0.375000
vt 0.625000 0.250000
vt 0.625000 0.250000
vt 0.625000 0.375000
vt 0.375000 0.875000
vt 0.625000 0.875000
vt 0.625000 1.000000
vt 0.375000 1.000000
vt 0.375000 0.125000
vt 0.625000 0.125000
vt 0.375000 0.250000
vt 0.250000 0.625000
vt 0.375000 0.625000
vt 0.375000 0.750000
vt 0.250000 0.750000
vt 0.625000 0.625000
vt 0.625000 0.750000
vt 0.375000 0.375000
vt 0.625000 0.500000
vt 0.375000 0.500000
vt 0.625000 0.875000
vt 0.625000 0.750000
vt 0.625000 0.750000
vt 0.625000 0.875000
vt 0.625000 0.000000
vt 0.625000 0.000000
vt 0.625000 0.125000
vt 0.625000 0.500000
vt 0.625000 0.625000
vt 0.625000 0.375000
vt 0.625000 0.250000
vt 0.625000 0.250000
vt 0.625000 0.375000
vt 0.625000 0.500000
vt 0.625000 0.625000
vt 0.625000 0.000000
vt 0.625000 0.125000
vt 0.625000 0.125000
vt 0.625000 0.000000
vt 0.625000 0.000000
vt 0.625000 0.125000
vt 0.625000 0.500000
vt 0.625000 0.625000
vt 0.625000 0.750000
vt 0.625000 0.875000
vt 0.625000 0.375000
vt 0.625000 0.250000
vt 0.625000 0.250000
vt 0.625000 0.375000
vt 0.625000 0.750000
vt 0.625000 0.875000
vt 0.625000 0.500000
vt 0.625000 0.625000
vt 0.750000 0.625000
vt 0.875000 0.625000
vt 0.875000 0.750000
vt 0.750000 0.750000
vt 0.625000 0.500000
vt 0.625000 0.625000
vt 0.625000 0.000000
vt 0.625000 0.125000
vt 0.625000 0.750000
vt 0.625000 0.875000
vt 0.750000 0.500000
vt 0.875000 0.500000
vt 0.250000 0.500000
vt 0.375000 0.000000
vt 0.125000 0.500000
vt 0.125000 0.625000
vt 0.625000 1.000000
vt 0.625000 1.000000
vt 0.625000 1.000000
vt 0.625000 1.000000
vt 0.625000 1.000000
vt 0.125000 0.750000
vn -0.3277 0.2738 -0.9043
vn -0.3986 0.7482 0.5304
vn -0.3734 0.9053 -0.2026
vn 0.0000 -1.0000 0.0000
vn 0.5010 0.8108 0.3026
vn 0.2224 0.8163 -0.5331
vn 0.2054 -0.1827 0.9615
vn 0.4287 0.5672 0.7032
vn -0.9891 0.0399 0.1420
vn 0.8255 0.4697 -0.3128
vn 0.1892 -0.3060 -0.9330
vn 0.0344 0.5577 -0.8293
vn 0.9546 -0.2056 -0.2155
vn -0.8788 0.4711 0.0762
vn -0.9371 0.3320 0.1081
vn 0.9783 -0.0165 -0.2065
vn -0.9153 -0.3957 0.0747
vn 0.0547 0.1211 0.9911
vn -0.4277 0.5132 -0.7441
vn -0.1598 0.1364 0.9777
vn -0.2131 0.1249 -0.9690
vn 0.9724 0.1669 -0.1631
vn 0.0000 1.0000 0.0000
vn 0.8161 0.4852 -0.3138
vn -0.9392 0.3192 -0.1265
vn 0.0000 0.3807 0.9247
vn -0.9392 0.3192 0.1265
vn 0.8161 0.4852 0.3138
vn 0.9724 0.1669 0.1631
vn -0.9154 -0.3955 -0.0751
vn 0.9783 -0.0165 0.2065
vn -0.9371 0.3320 -0.1081
vn -0.8790 0.4707 -0.0765
vn 0.9546 -0.2056 0.2155
vn 0.8255 0.4697 0.3128
vn -0.9891 0.0399 -0.1420
vn 0.5010 0.8108 -0.3026
vn -0.3734 0.9053 0.2026
vn 0.2131 0.1249 -0.9690
vn 0.1598 0.1364 0.9777
vn 0.4277 0.5132 -0.7441
vn -0.0547 0.1211 0.9911
vn -0.0344 0.5577 -0.8293
vn -0.1892 -0.3060 -0.9330
vn -0.4287 0.5672 0.7032
vn -0.2054 -0.1827 0.9615
vn -0.2224 0.8163 -0.5331
vn 0.3986 0.7482 0.5304
vn 0.3277 0.2738 -0.9043
usemtl Material
s off
f 46/1/1 5/2/1 12/3/1 48/4/1
f 45/5/2 44/6/2 7/7/2 8/8/2
f 29/9/3 31/10/3 5/2/3 6/11/3
f 58/12/4 32/13/4 4/14/4 45/15/4
f 32/13/5 30/16/5 3/17/5 4/14/5
f 43/18/6 46/1/6 1/19/6 2/20/6
f 47/21/7 9/22/7 13/23/7 49/24/7
f 44/6/8 3/17/8 9/22/8 47/21/8
f 31/10/9 7/25/9 10/26/9 34/27/9
f 30/16/10 1/19/10 11/28/10 33/29/10
f 50/30/11 16/31/11 20/32/11 52/33/11
f 48/4/12 12/3/12 16/31/12 50/30/12
f 33/29/13 11/28/13 15/34/13 35/35/13
f 34/27/14 10/26/14 14/36/14 36/37/14
f 38/38/15 18/39/15 22/40/15 40/41/15
f 35/35/16 15/34/16 19/42/16 37/43/16
f 36/37/17 14/36/17 18/39/17 38/38/17
f 49/24/18 13/23/18 17/44/18 51/45/18
f 54/46/19 24/47/19 28/48/19 56/49/19
f 51/45/20 17/44/20 21/50/20 53/51/20
f 52/33/21 20/32/21 24/47/21 54/46/21
f 37/43/22 19/42/22 23/52/22 39/53/22
f 57/54/23 42/55/23 26/56/23 55/57/23
f 39/53/24 23/52/24 27/58/24 41/59/24
f 40/41/25 22/40/25 26/60/25 42/61/25
f 53/51/26 21/50/26 25/62/26 55/63/26
f 24/47/27 40/41/27 42/61/27 28/48/27
f 21/50/28 39/53/28 41/59/28 25/62/28
f 56/64/23 28/65/23 42/55/23 57/54/23
f 17/44/29 37/43/29 39/53/29 21/50/29
f 16/31/30 36/37/30 38/38/30 20/32/30
f 13/23/31 35/35/31 37/43/31 17/44/31
f 20/32/32 38/38/32 40/41/32 24/47/32
f 12/3/33 34/27/33 36/37/33 16/31/33
f 9/22/34 33/29/34 35/35/34 13/23/34
f 3/17/35 30/16/35 33/29/35 9/22/35
f 5/2/36 31/10/36 34/27/36 12/3/36
f 2/20/37 1/19/37 30/16/37 32/13/37
f 43/66/4 2/20/4 32/13/4 58/12/4
f 8/67/38 7/25/38 31/10/38 29/9/38
f 6/68/4 43/66/4 58/12/4 29/69/4
f 27/58/23 56/64/23 57/54/23 41/59/23
f 22/70/26 53/51/26 55/63/26 26/71/26
f 41/59/23 57/54/23 55/57/23 25/62/23
f 19/42/39 52/33/39 54/46/39 23/52/39
f 18/72/40 51/45/40 53/51/40 22/70/40
f 23/52/41 54/46/41 56/49/41 27/58/41
f 14/73/42 49/24/42 51/45/42 18/72/42
f 11/28/43 48/4/43 50/30/43 15/34/43
f 15/34/44 50/30/44 52/33/44 19/42/44
f 7/7/45 44/6/45 47/21/45 10/74/45
f 10/74/46 47/21/46 49/24/46 14/73/46
f 6/11/47 5/2/47 46/1/47 43/18/47
f 29/69/4 58/12/4 45/15/4 8/75/4
f 4/14/48 3/17/48 44/6/48 45/5/48
f 1/19/49 46/1/49 48/4/49 11/28/49
