# Blender v2.91.0 OBJ File: 'stalacmite 8.blend'
# www.blender.org
mtllib stalacmite 8.mtl
o Cube
v 1.043238 1.744301 -1.041523
v 1.043238 -1.744301 -1.041523
v 1.305031 1.864086 1.041658
v 1.342793 -1.744301 1.240010
v -1.372228 1.620836 -1.232914
v -1.511374 -1.744301 -1.341059
v -1.492520 1.683692 1.162163
v -1.190786 -1.744301 1.300314
v -1.503131 -1.744301 0.000000
v 1.362679 1.744301 0.000000
v -1.486324 1.744301 0.000000
v 1.726226 -1.744301 0.000000
v -1.445565 1.744301 -0.520761
v 1.771386 -1.744301 -0.520761
v -1.595833 -1.744301 -0.520761
v 1.832882 1.744301 -0.520761
v -1.741092 -1.744301 0.520761
v 1.385581 1.744301 0.520761
v -1.502175 1.744301 0.520761
v 1.468770 -1.744301 0.520761
v 1.043238 0.000000 -1.041523
v -1.043238 0.000000 1.041523
v 1.342793 0.000000 1.240010
v -1.224509 -0.043183 -1.257304
v 1.185362 0.000000 0.000000
v -1.478288 0.000000 0.000000
v 1.273880 0.000000 -0.520761
v -1.471661 0.000000 -0.520761
v -1.385747 0.000000 0.520761
v 1.297316 0.000000 0.520761
v 0.000000 -1.744301 -1.455847
v 0.000000 1.744301 1.398934
v 0.000000 -1.744301 1.489841
v 0.000000 2.419920 -1.041523
v 0.000000 -1.744301 0.000000
v 0.000000 4.221440 0.000000
v 0.000000 3.105826 -0.520761
v 0.000000 -1.961796 -0.520761
v 0.000000 -1.882585 0.520761
v 0.000000 2.917865 0.520761
v 0.000000 0.000000 -1.293086
v 0.000000 0.000000 1.268270
v -1.304496 0.747067 1.033563
v 1.043238 0.872151 -1.041523
v 1.358850 0.833812 1.263765
v -1.288845 0.872151 -1.041523
v 1.496512 0.872151 0.000000
v -1.204010 0.872151 0.000000
v 1.531030 0.872151 -0.520761
v -1.425912 0.872151 -0.520761
v -1.269648 0.872151 0.520761
v 1.398466 0.872151 0.520761
v 0.000000 0.872151 -1.041523
v 0.000000 0.872151 1.290052
v 1.043238 -0.872527 -1.041523
v 1.207834 -0.725447 0.885220
v -1.074335 -0.984251 -1.306533
v 1.531671 -0.872527 0.000000
v -1.655699 -0.872527 0.000000
v 1.352427 -0.872527 -0.520761
v -1.435549 -0.872527 -0.520761
v -1.576143 -0.872527 0.520761
v 1.331345 -0.872527 0.520761
v -1.280111 -0.921702 1.038470
v -0.039329 -0.950393 1.041523
v 0.000000 -0.872527 -1.342679
v 1.043238 -1.308414 -1.041523
v 1.223504 -1.183051 0.922083
v -1.043238 -1.308414 -1.041523
v 1.616210 -1.308414 0.000000
v -1.588804 -1.308414 0.000000
v 1.417831 -1.308414 -0.520761
v -1.714319 -1.308414 -0.520761
v -2.072977 -1.308414 0.520761
v 1.743130 -1.308414 0.520761
v 0.000000 -1.308414 1.241768
v 0.000000 -1.308414 -1.376668
v -1.043238 -1.308414 1.041523
v -1.043238 -0.436264 1.041523
v 1.043238 -0.436264 -1.041523
v 1.287372 -0.338598 0.982340
v -1.043238 -0.436264 -1.041523
v 1.541550 -0.436264 0.000000
v -1.399979 -0.436264 0.000000
v 1.402110 -0.436264 -0.520761
v -1.534814 -0.436264 -0.520761
v -1.368285 -0.436264 0.520761
v 1.494315 -0.436264 0.520761
v 0.000000 -0.436264 1.357845
v 0.000000 -0.436264 -1.748569
v 1.043238 0.436075 -1.041523
v 1.350378 0.456854 1.119857
v -1.043238 0.436075 -1.041523
v 1.410694 0.436075 0.000000
v -1.244373 0.436075 0.000000
v 1.427976 0.436075 -0.520761
v -1.296599 0.436075 -0.520761
v -1.199576 0.436075 0.520761
v 1.347981 0.436075 0.520761
v 0.000000 0.436075 -1.268213
v 0.000000 0.436075 1.355145
v -1.203938 0.313882 1.067441
v -1.369713 1.138039 1.111093
v 1.043238 1.308226 -1.041523
v 1.377337 1.197440 1.427274
v -1.397679 1.277502 -1.188403
v 1.770618 1.308226 0.000000
v -1.265485 1.308226 0.000000
v 1.832205 1.308226 -0.520761
v -1.199647 1.308226 -0.520761
v -1.229357 1.308226 0.520761
v 1.501987 1.308226 0.520761
v 0.000000 1.308226 -1.544382
v 0.000000 1.308226 1.486644
v 0.521619 -1.744301 1.738002
v 0.521619 2.082111 -1.041523
v 0.521619 2.982871 0.000000
v 0.521619 2.425064 -0.520761
v 0.521619 2.331083 0.520761
v 0.521619 0.000000 -1.294234
v 0.521619 -1.744301 -1.696870
v 0.521619 1.744301 1.358361
v 0.863113 -1.893107 0.000000
v 0.885693 -1.888849 -0.520761
v 0.734385 -1.842327 0.520761
v 0.521619 0.000000 1.288776
v 0.521619 0.872151 1.276631
v 0.521619 0.872151 -1.041523
v 0.521619 -0.872527 1.354493
v 0.521619 -0.872527 -1.554699
v 0.521619 -1.308414 -1.402621
v 0.521619 -1.308414 1.199397
v 0.521619 -0.436264 1.473629
v 0.521619 -0.436264 -1.699290
v 0.521619 0.436075 -1.317181
v 0.521619 0.436075 1.254016
v 0.521619 1.308226 1.497448
v 0.521619 1.308226 -1.292953
v -0.521619 -1.744301 -1.965195
v -0.521619 1.744301 1.453557
v -0.521619 -1.836425 0.000000
v -0.521619 -1.957497 -0.520761
v -0.521619 -1.913420 0.520761
v -0.521619 0.000000 1.288140
v -0.521619 -1.744301 1.665099
v -0.521619 2.082111 -1.041523
v -0.521619 2.982871 0.000000
v -0.521619 2.425064 -0.520761
v -0.521619 2.331083 0.520761
v -0.521619 0.000000 -1.526170
v -0.521619 0.872151 -1.041523
v -0.521619 0.872151 1.515343
v -0.521619 -0.872527 -1.394087
v -0.521619 -0.872527 1.321159
v -0.521619 -1.308414 1.696816
v -0.521619 -1.308414 -1.492946
v -0.521619 -0.436264 -1.432514
v -0.521619 -0.436264 1.338832
v -0.521619 0.370752 1.191435
v -0.521619 0.436075 -1.343961
v -0.521619 1.308226 -1.292953
v -0.521619 1.308226 1.575497
vt 0.812500 0.687500
vt 0.875000 0.687500
vt 0.875000 0.750000
vt 0.812500 0.750000
vt 0.593750 0.937500
vt 0.625000 0.937500
vt 0.625000 1.000000
vt 0.593750 1.000000
vt 0.593750 0.187500
vt 0.625000 0.187500
vt 0.625000 0.250000
vt 0.593750 0.250000
vt 0.312500 0.687500
vt 0.375000 0.687500
vt 0.375000 0.750000
vt 0.312500 0.750000
vt 0.593750 0.687500
vt 0.625000 0.687500
vt 0.625000 0.750000
vt 0.593750 0.750000
vt 0.593750 0.437500
vt 0.625000 0.437500
vt 0.625000 0.500000
vt 0.593750 0.500000
vt 0.593750 0.562500
vt 0.625000 0.562500
vt 0.625000 0.625000
vt 0.593750 0.625000
vt 0.312500 0.562500
vt 0.375000 0.562500
vt 0.375000 0.625000
vt 0.312500 0.625000
vt 0.593750 0.062500
vt 0.625000 0.062500
vt 0.625000 0.125000
vt 0.593750 0.125000
vt 0.812500 0.562500
vt 0.875000 0.562500
vt 0.875000 0.625000
vt 0.812500 0.625000
vt 0.812500 0.500000
vt 0.875000 0.500000
vt 0.312500 0.500000
vt 0.375000 0.500000
vt 0.593750 0.000000
vt 0.625000 0.000000
vt 0.468736 0.625000
vt 0.500000 0.625000
vt 0.500000 0.687500
vt 0.468736 0.687500
vt 0.468736 0.000000
vt 0.500000 0.000000
vt 0.500000 0.062500
vt 0.468736 0.062500
vt 0.468736 0.125000
vt 0.500000 0.125000
vt 0.500000 0.187500
vt 0.468736 0.187500
vt 0.468736 0.500000
vt 0.500000 0.500000
vt 0.500000 0.562500
vt 0.468736 0.562500
vt 0.468736 0.437500
vt 0.500000 0.437500
vt 0.500000 0.750000
vt 0.468736 0.750000
vt 0.500000 0.250000
vt 0.468736 0.250000
vt 0.468736 0.937500
vt 0.500000 0.937500
vt 0.500000 1.000000
vt 0.468736 1.000000
vt 0.468736 0.812500
vt 0.500000 0.812500
vt 0.500000 0.875000
vt 0.468736 0.875000
vt 0.468736 0.312500
vt 0.500000 0.312500
vt 0.500000 0.375000
vt 0.468736 0.375000
vt 0.687500 0.625000
vt 0.750000 0.625000
vt 0.750000 0.687500
vt 0.687500 0.687500
vt 0.187500 0.625000
vt 0.250000 0.625000
vt 0.250000 0.687500
vt 0.187500 0.687500
vt 0.187500 0.500000
vt 0.250000 0.500000
vt 0.250000 0.562500
vt 0.187500 0.562500
vt 0.687500 0.500000
vt 0.750000 0.500000
vt 0.750000 0.562500
vt 0.687500 0.562500
vt 0.593750 0.312500
vt 0.625000 0.312500
vt 0.625000 0.375000
vt 0.593750 0.375000
vt 0.250000 0.750000
vt 0.187500 0.750000
vt 0.593750 0.812500
vt 0.625000 0.812500
vt 0.625000 0.875000
vt 0.593750 0.875000
vt 0.750000 0.750000
vt 0.687500 0.750000
vt 0.531250 0.812500
vt 0.562500 0.812500
vt 0.562500 0.875000
vt 0.531250 0.875000
vt 0.531250 0.312500
vt 0.562500 0.312500
vt 0.562500 0.375000
vt 0.531250 0.375000
vt 0.531250 0.625000
vt 0.562500 0.625000
vt 0.562500 0.687500
vt 0.531250 0.687500
vt 0.531250 0.000000
vt 0.562500 0.000000
vt 0.562500 0.062500
vt 0.531250 0.062500
vt 0.531250 0.125000
vt 0.562500 0.125000
vt 0.562500 0.187500
vt 0.531250 0.187500
vt 0.531250 0.500000
vt 0.562500 0.500000
vt 0.562500 0.562500
vt 0.531250 0.562500
vt 0.531250 0.437500
vt 0.562500 0.437500
vt 0.562500 0.750000
vt 0.531250 0.750000
vt 0.562500 0.250000
vt 0.531250 0.250000
vt 0.531250 0.937500
vt 0.562500 0.937500
vt 0.562500 1.000000
vt 0.531250 1.000000
vt 0.406236 0.312500
vt 0.437473 0.312500
vt 0.437473 0.375000
vt 0.406236 0.375000
vt 0.406236 0.812500
vt 0.437473 0.812500
vt 0.437473 0.875000
vt 0.406236 0.875000
vt 0.406236 0.937500
vt 0.437473 0.937500
vt 0.437473 1.000000
vt 0.406236 1.000000
vt 0.406236 0.187500
vt 0.437473 0.187500
vt 0.437473 0.250000
vt 0.406236 0.250000
vt 0.406236 0.687500
vt 0.437473 0.687500
vt 0.437473 0.750000
vt 0.406236 0.750000
vt 0.406236 0.437500
vt 0.437473 0.437500
vt 0.437473 0.500000
vt 0.406236 0.500000
vt 0.406236 0.562500
vt 0.437473 0.562500
vt 0.437473 0.625000
vt 0.406236 0.625000
vt 0.406236 0.062500
vt 0.437473 0.062500
vt 0.437473 0.125000
vt 0.406236 0.125000
vt 0.406236 0.000000
vt 0.437473 0.000000
vt 0.375000 0.000000
vt 0.375000 0.062500
vt 0.375000 0.125000
vt 0.375000 0.187500
vt 0.375000 0.437500
vt 0.375000 0.250000
vt 0.375000 0.937500
vt 0.375000 1.000000
vt 0.375000 0.812500
vt 0.375000 0.875000
vt 0.375000 0.312500
vt 0.375000 0.375000
vt 0.125000 0.687500
vt 0.125000 0.750000
vt 0.125000 0.562500
vt 0.125000 0.625000
vt 0.125000 0.500000
vn -0.3417 0.8684 0.3592
vn -0.3856 0.0184 0.9225
vn -0.9575 -0.2642 0.1161
vn 0.0835 -0.9944 0.0649
vn 0.9672 0.2137 0.1377
vn 0.2890 0.1948 -0.9373
vn 0.8223 0.3840 0.4199
vn 0.1654 -0.9862 0.0067
vn -0.8701 -0.4925 0.0169
vn -0.6610 0.6504 -0.3742
vn -0.4842 0.8084 -0.3346
vn 0.1949 -0.9587 -0.2071
vn 0.5507 -0.0004 -0.8347
vn -0.8781 -0.4699 -0.0899
vn -0.9177 -0.3613 -0.1651
vn 0.8400 0.5050 0.1982
vn 0.1519 -0.9829 0.1042
vn -0.6250 0.6660 0.4073
vn 0.8434 0.5347 -0.0524
vn -0.8418 -0.0168 0.5395
vn -0.9924 -0.0172 0.1222
vn 0.8632 0.1269 -0.4886
vn -0.9871 -0.1083 0.1177
vn 0.8735 0.4850 -0.0427
vn 0.6207 0.3302 -0.7112
vn 0.9827 0.1387 0.1229
vn -0.8394 -0.2457 -0.4848
vn -0.4617 0.0514 0.8855
vn -0.1237 0.2977 0.9466
vn -0.0733 0.3820 -0.9212
vn 0.6353 0.3631 0.6816
vn 0.1147 -0.9728 -0.2011
vn 0.0826 -0.9806 -0.1775
vn 0.5705 0.5843 -0.5772
vn 0.6971 0.3789 -0.6087
vn 0.0798 -0.9480 0.3082
vn -0.3253 0.3512 -0.8780
vn 0.0534 -0.9882 0.1437
vn 0.0276 0.2516 0.9674
vn 0.3876 0.6434 0.6601
vn 0.1090 0.0484 0.9929
vn 0.0620 0.5177 -0.8533
vn 0.9767 -0.1526 0.1508
vn -0.9774 -0.1950 -0.0817
vn -0.9624 -0.0982 0.2533
vn 0.7634 -0.0902 -0.6396
vn -0.9992 -0.0340 -0.0200
vn 0.9762 -0.2114 0.0486
vn 0.2443 0.2922 -0.9246
vn 0.9967 -0.0770 0.0266
vn -0.8686 -0.3734 -0.3256
vn -0.3297 -0.3120 0.8911
vn 0.1569 0.1488 -0.9763
vn -0.2452 0.0429 0.9685
vn -0.5846 0.1943 0.7877
vn -0.7825 0.0383 -0.6215
vn 0.7690 0.3888 0.5075
vn 0.6366 -0.1325 -0.7597
vn 0.9281 0.1596 -0.3365
vn -0.8469 0.4177 -0.3290
vn 0.8343 0.0626 -0.5477
vn -0.9679 0.2352 -0.0879
vn -0.6006 0.1927 0.7759
vn 0.8674 0.4938 0.0611
vn 0.9753 -0.1839 0.1222
vn -0.6326 0.0944 0.7687
vn -0.9540 -0.2234 0.1999
vn 0.6615 0.2683 -0.7004
vn -0.7647 -0.3663 -0.5302
vn 0.8756 0.4656 -0.1288
vn 0.6783 0.2350 -0.6962
vn 0.8674 0.0236 0.4971
vn -0.7736 0.4600 -0.4358
vn -0.6218 0.2943 0.7258
vn -0.1449 0.6629 0.7346
vn 0.4521 0.4768 -0.7538
vn -0.2205 -0.4426 -0.8692
vn -0.3159 -0.3844 0.8674
vn -0.4139 0.0860 0.9062
vn -0.8304 0.0905 -0.5498
vn 0.8511 -0.3015 0.4298
vn 0.7422 -0.1096 -0.6612
vn 0.9542 -0.0651 -0.2920
vn -0.8792 0.4671 0.0939
vn 0.8408 -0.0479 -0.5393
vn -0.9811 0.1759 -0.0804
vn -0.7866 0.3779 0.4883
vn 0.9553 -0.1892 0.2271
vn -0.2953 0.0294 0.9549
vn -0.8424 0.4103 -0.3494
vn 0.9969 -0.0698 -0.0351
vn 0.4517 -0.0235 -0.8919
vn 0.9130 -0.3972 0.0927
vn -0.8946 0.4309 0.1180
vn 0.8512 -0.1504 -0.5029
vn -0.9047 0.4242 0.0396
vn -0.9524 0.0218 0.3042
vn 0.9524 -0.3014 -0.0450
vn 0.2768 0.2220 -0.9349
vn 0.0769 -0.0595 0.9953
vn 0.0023 -0.4317 0.9020
vn -0.1793 -0.6435 -0.7441
vn 0.8732 -0.3781 0.3074
vn -0.9869 -0.0147 -0.1607
vn -0.9721 0.1837 0.1457
vn 0.6176 -0.2133 -0.7571
vn -0.9993 -0.0243 -0.0283
vn 0.8323 -0.5490 0.0768
vn 0.2256 -0.2699 -0.9361
vn 0.9825 -0.1668 0.0828
vn -0.9882 0.1461 0.0469
vn -0.4688 -0.1809 0.8646
vn 0.1793 -0.6435 -0.7441
vn 0.0060 -0.4333 0.9012
vn 0.1065 0.1691 0.9798
vn -0.0480 0.0022 -0.9988
vn -0.1308 -0.5290 -0.8385
vn 0.5629 -0.2605 0.7844
vn 0.3055 0.6412 0.7039
vn -0.2290 0.3833 -0.8948
vn -0.2205 -0.1309 -0.9666
vn 0.4871 -0.1062 0.8669
vn -0.0406 0.4987 -0.8658
vn 0.0840 -0.2008 0.9760
vn 0.3153 0.8916 0.3252
vn 0.2050 0.4315 0.8785
vn 0.6623 0.7427 -0.0988
vn 0.4061 0.7308 -0.5486
vn 0.6759 0.6313 0.3802
vn 0.3263 -0.1115 0.9387
vn 0.0328 0.7018 -0.7116
vn -0.0675 -0.9935 -0.0918
vn 0.0215 -0.9848 -0.1726
vn -0.0425 -0.9790 0.1995
vn 0.3253 0.3512 -0.8780
vn 0.0104 -0.9940 0.1085
vn 0.2775 -0.2713 0.9216
vn -0.0492 -0.4325 -0.9003
vn -0.3940 0.4310 -0.8118
vn -0.1373 0.0121 0.9905
vn 0.2129 -0.3318 0.9190
vn -0.4159 0.2165 -0.8833
vn -0.4033 0.7184 -0.5668
vn 0.5058 0.2078 0.8372
vn 0.5321 0.5143 0.6726
vn -0.4209 -0.2101 -0.8825
vn 0.0734 -0.2654 0.9613
vn -0.2204 0.2636 -0.9391
vn -0.1113 -0.9867 0.1186
vn -0.0025 0.1822 -0.9833
vn -0.1457 -0.9811 0.1270
vn -0.1315 -0.9865 -0.0978
vn -0.1173 -0.9881 -0.0998
vn -0.4246 -0.3965 -0.8139
vn 0.0008 0.1587 0.9873
vn -0.6353 0.3631 0.6816
vn -0.5705 0.5843 -0.5772
vn -0.6971 0.3789 -0.6087
vn 0.1325 0.2317 0.9637
vn -0.3444 0.6732 0.6544
usemtl Material
s off
f 149/1/1 19/2/1 7/3/1 140/4/1
f 162/5/2 140/6/2 7/7/2 103/8/2
f 110/9/3 13/10/3 5/11/3 106/12/3
f 125/13/4 20/14/4 4/15/4 115/16/4
f 112/17/5 18/18/5 3/19/5 105/20/5
f 138/21/6 116/22/6 1/23/6 104/24/6
f 109/25/7 16/26/7 10/27/7 107/28/7
f 124/29/8 14/30/8 12/31/8 123/32/8
f 111/33/9 19/34/9 11/35/9 108/36/9
f 148/37/10 13/38/10 11/39/10 147/40/10
f 146/41/11 5/42/11 13/38/11 148/37/11
f 121/43/12 2/44/12 14/30/12 124/29/12
f 104/24/13 1/23/13 16/26/13 109/25/13
f 108/36/14 11/35/14 13/10/14 110/9/14
f 103/45/15 7/46/15 19/34/15 111/33/15
f 107/28/16 10/27/16 18/18/16 112/17/16
f 123/32/17 12/31/17 20/14/17 125/13/17
f 147/40/18 11/39/18 19/2/18 149/1/18
f 83/47/19 25/48/19 30/49/19 88/50/19
f 79/51/20 22/52/20 29/53/20 87/54/20
f 84/55/21 26/56/21 28/57/21 86/58/21
f 80/59/22 21/60/22 27/61/22 85/62/22
f 87/54/23 29/53/23 26/56/23 84/55/23
f 85/62/24 27/61/24 25/48/24 83/47/24
f 134/63/25 120/64/25 21/60/25 80/59/25
f 88/50/26 30/49/26 23/65/26 81/66/26
f 86/58/27 28/57/27 24/67/27 82/68/27
f 158/69/28 144/70/28 22/71/28 79/72/28
f 133/73/29 126/74/29 42/75/29 89/76/29
f 157/77/30 150/78/30 41/79/30 90/80/30
f 117/81/31 36/82/31 40/83/31 119/84/31
f 141/85/32 35/86/32 39/87/32 143/88/32
f 139/89/33 31/90/33 38/91/33 142/92/33
f 116/93/34 34/94/34 37/95/34 118/96/34
f 118/96/35 37/95/35 36/82/35 117/81/35
f 142/92/36 38/91/36 35/86/36 141/85/36
f 161/97/37 146/98/37 34/99/37 113/100/37
f 143/88/38 39/87/38 33/101/38 145/102/38
f 137/103/39 122/104/39 32/105/39 114/106/39
f 119/84/40 40/83/40 32/107/40 122/108/40
f 136/109/41 127/110/41 54/111/41 101/112/41
f 160/113/42 151/114/42 53/115/42 100/116/42
f 94/117/43 47/118/43 52/119/43 99/120/43
f 102/121/44 43/122/44 51/123/44 98/124/44
f 95/125/45 48/126/45 50/127/45 97/128/45
f 91/129/46 44/130/46 49/131/46 96/132/46
f 98/124/47 51/123/47 48/126/47 95/125/47
f 96/132/48 49/131/48 47/118/48 94/117/48
f 135/133/49 128/134/49 44/130/49 91/129/49
f 99/120/50 52/119/50 45/135/50 92/136/50
f 97/128/51 50/127/51 46/137/51 93/138/51
f 159/139/52 152/140/52 43/141/52 102/142/52
f 156/143/53 153/144/53 66/145/53 77/146/53
f 132/147/54 129/148/54 65/149/54 76/150/54
f 155/151/55 154/152/55 64/153/55 78/154/55
f 73/155/56 61/156/56 57/157/56 69/158/56
f 75/159/57 63/160/57 56/161/57 68/162/57
f 131/163/58 130/164/58 55/165/58 67/166/58
f 72/167/59 60/168/59 58/169/59 70/170/59
f 74/171/60 62/172/60 59/173/60 71/174/60
f 67/166/61 55/165/61 60/168/61 72/167/61
f 71/174/62 59/173/62 61/156/62 73/155/62
f 78/175/63 64/176/63 62/172/63 74/171/63
f 70/170/64 58/169/64 63/160/64 75/159/64
f 12/31/65 70/170/65 75/159/65 20/14/65
f 8/177/66 78/175/66 74/171/66 17/178/66
f 9/179/67 71/174/67 73/155/67 15/180/67
f 2/44/68 67/166/68 72/167/68 14/30/68
f 17/178/69 74/171/69 71/174/69 9/179/69
f 14/30/70 72/167/70 70/170/70 12/31/70
f 121/181/71 131/163/71 67/166/71 2/44/71
f 20/14/72 75/159/72 68/162/72 4/15/72
f 15/180/73 73/155/73 69/158/73 6/182/73
f 145/183/74 155/151/74 78/154/74 8/184/74
f 115/185/75 132/147/75 76/150/75 33/186/75
f 139/187/76 156/143/76 77/146/76 31/188/76
f 153/144/77 157/77/77 90/80/77 66/145/77
f 129/148/78 133/73/78 89/76/78 65/149/78
f 154/152/79 158/69/79 79/72/79 64/153/79
f 61/156/80 86/58/80 82/68/80 57/157/80
f 63/160/81 88/50/81 81/66/81 56/161/81
f 130/164/82 134/63/82 80/59/82 55/165/82
f 60/168/83 85/62/83 83/47/83 58/169/83
f 62/172/84 87/54/84 84/55/84 59/173/84
f 55/165/85 80/59/85 85/62/85 60/168/85
f 59/173/86 84/55/86 86/58/86 61/156/86
f 64/176/87 79/51/87 87/54/87 62/172/87
f 58/169/88 83/47/88 88/50/88 63/160/88
f 144/70/89 159/139/89 102/142/89 22/71/89
f 28/57/90 97/128/90 93/138/90 24/67/90
f 30/49/91 99/120/91 92/136/91 23/65/91
f 120/64/92 135/133/92 91/129/92 21/60/92
f 27/61/93 96/132/93 94/117/93 25/48/93
f 29/53/94 98/124/94 95/125/94 26/56/94
f 21/60/95 91/129/95 96/132/95 27/61/95
f 26/56/96 95/125/96 97/128/96 28/57/96
f 22/52/97 102/121/97 98/124/97 29/53/97
f 25/48/98 94/117/98 99/120/98 30/49/98
f 150/78/99 160/113/99 100/116/99 41/79/99
f 126/74/100 136/109/100 101/112/100 42/75/100
f 127/110/101 137/103/101 114/106/101 54/111/101
f 151/114/102 161/97/102 113/100/102 53/115/102
f 47/118/103 107/28/103 112/17/103 52/119/103
f 43/122/104 103/45/104 111/33/104 51/123/104
f 48/126/105 108/36/105 110/9/105 50/127/105
f 44/130/106 104/24/106 109/25/106 49/131/106
f 51/123/107 111/33/107 108/36/107 48/126/107
f 49/131/108 109/25/108 107/28/108 47/118/108
f 128/134/109 138/21/109 104/24/109 44/130/109
f 52/119/110 112/17/110 105/20/110 45/135/110
f 50/127/111 110/9/111 106/12/111 46/137/111
f 152/140/112 162/5/112 103/8/112 43/141/112
f 53/115/113 113/100/113 138/21/113 128/134/113
f 45/135/114 105/20/114 137/103/114 127/110/114
f 23/65/115 92/136/115 136/109/115 126/74/115
f 41/79/116 100/116/116 135/133/116 120/64/116
f 66/145/117 90/80/117 134/63/117 130/164/117
f 56/161/118 81/66/118 133/73/118 129/148/118
f 4/15/119 68/162/119 132/147/119 115/185/119
f 31/188/120 77/146/120 131/163/120 121/181/120
f 77/146/121 66/145/121 130/164/121 131/163/121
f 68/162/122 56/161/122 129/148/122 132/147/122
f 100/116/123 53/115/123 128/134/123 135/133/123
f 92/136/124 45/135/124 127/110/124 136/109/124
f 18/18/125 119/84/125 122/108/125 3/19/125
f 105/20/126 3/19/126 122/104/126 137/103/126
f 16/26/127 118/96/127 117/81/127 10/27/127
f 1/23/128 116/93/128 118/96/128 16/26/128
f 10/27/129 117/81/129 119/84/129 18/18/129
f 81/66/130 23/65/130 126/74/130 133/73/130
f 90/80/131 41/79/131 120/64/131 134/63/131
f 35/86/132 123/32/132 125/13/132 39/87/132
f 31/90/133 121/43/133 124/29/133 38/91/133
f 38/91/134 124/29/134 123/32/134 35/86/134
f 113/100/135 34/99/135 116/22/135 138/21/135
f 39/87/136 125/13/136 115/16/136 33/101/136
f 54/111/137 114/106/137 162/5/137 152/140/137
f 46/137/138 106/12/138 161/97/138 151/114/138
f 24/67/139 93/138/139 160/113/139 150/78/139
f 42/75/140 101/112/140 159/139/140 144/70/140
f 65/149/141 89/76/141 158/69/141 154/152/141
f 57/157/142 82/68/142 157/77/142 153/144/142
f 6/182/143 69/158/143 156/143/143 139/187/143
f 33/186/144 76/150/144 155/151/144 145/183/144
f 76/150/145 65/149/145 154/152/145 155/151/145
f 69/158/146 57/157/146 153/144/146 156/143/146
f 101/112/147 54/111/147 152/140/147 159/139/147
f 93/138/148 46/137/148 151/114/148 160/113/148
f 17/189/149 143/88/149 145/102/149 8/190/149
f 106/12/150 5/11/150 146/98/150 161/97/150
f 15/191/151 142/92/151 141/85/151 9/192/151
f 6/193/152 139/89/152 142/92/152 15/191/152
f 9/192/153 141/85/153 143/88/153 17/189/153
f 82/68/154 24/67/154 150/78/154 157/77/154
f 89/76/155 42/75/155 144/70/155 158/69/155
f 36/82/156 147/40/156 149/1/156 40/83/156
f 34/94/157 146/41/157 148/37/157 37/95/157
f 37/95/158 148/37/158 147/40/158 36/82/158
f 114/106/159 32/105/159 140/6/159 162/5/159
f 40/83/160 149/1/160 140/4/160 32/107/160
