# Blender v2.91.0 OBJ File: 'charniere echaffaudage moyen.blend'
# www.blender.org
mtllib charniere echaffaudage moyen.mtl
o Cylindre.020_Cylindre.022
v 0.000000 -17.028362 -3.085492
v 1.542746 -17.028362 -2.672115
v 2.672115 -17.028362 -1.542746
v 3.085492 -17.028362 0.000000
v 2.672115 -17.028362 1.542746
v 1.542746 -17.028362 2.672115
v 0.000000 -17.028362 3.085492
v -1.542746 -17.028362 2.672115
v -2.672114 -17.028362 1.542747
v -3.085492 -17.028362 0.000001
v -2.672116 -17.028362 -1.542745
v -1.542748 -17.028362 -2.672114
v 0.000000 14.653184 -3.085492
v 1.542746 14.653184 -2.672115
v 2.672115 14.653184 -1.542746
v 3.085492 14.653184 0.000000
v 2.672115 14.653184 1.542746
v 1.542746 14.653184 2.672115
v 0.000000 14.653184 3.085492
v -1.542746 14.653184 2.672115
v -2.672114 14.653184 1.542747
v -3.085492 14.653184 0.000001
v -2.672116 14.653184 -1.542745
v -1.542748 14.653184 -2.672114
v 1.542746 -1.390676 -2.672115
v 2.672115 -1.390676 -1.542746
v 3.085492 -1.390676 0.000000
v 2.672115 -1.390676 1.542746
v 1.542746 -1.390676 2.672115
v 0.000000 -1.390676 3.085492
v -1.542746 -1.390676 2.672115
v -2.672114 -1.390676 1.542747
v -3.085492 -1.390676 0.000001
v -2.672116 -1.390676 -1.542745
v -1.542748 -1.390676 -2.672114
v 0.000000 -1.390676 -3.085492
v 0.000000 6.631254 -2.668643
v 1.334322 6.631254 -2.311113
v 2.311113 6.631254 -1.334322
v 2.668644 6.631254 0.000000
v 2.311113 6.631254 1.334322
v 1.334322 6.631254 2.311113
v 0.000000 6.631254 2.668644
v -1.334321 6.631254 2.311113
v -2.311113 6.631254 1.334323
v -2.668644 6.631254 0.000001
v -2.311114 6.631254 -1.334320
v -1.334323 6.631254 -2.311112
v 1.283049 -9.209518 -2.222309
v 2.222307 -9.209518 -1.283050
v 2.566099 -9.209518 0.000000
v 2.222307 -9.209518 1.283051
v 1.283049 -9.209518 2.222309
v -0.000002 -9.209518 2.566101
v -1.283052 -9.209518 2.222309
v -2.222310 -9.209518 1.283051
v -2.566103 -9.209518 0.000001
v -2.222311 -9.209518 -1.283049
v -1.283054 -9.209518 -2.222308
v -0.000002 -9.209519 -2.566101
v 1.542746 -15.690929 -2.672115
v 2.672115 -15.690929 -1.542746
v 3.085492 -15.690929 0.000000
v 2.672115 -15.690929 1.542746
v 1.542746 -15.690929 2.672115
v 0.000000 -15.690929 3.085492
v -1.542746 -15.690929 2.672115
v -2.672114 -15.690929 1.542747
v -3.085492 -15.690929 0.000001
v -2.672116 -15.690929 -1.542745
v -1.542748 -15.690929 -2.672114
v 0.000000 -15.690929 -3.085492
v 0.000000 13.629107 -3.085492
v 1.542746 13.629107 -2.672115
v 2.672115 13.629107 -1.542746
v 3.085492 13.629107 0.000000
v 2.672115 13.629107 1.542746
v 1.542746 13.629107 2.672115
v 0.000000 13.629107 3.085492
v -1.542746 13.629107 2.672115
v -2.672114 13.629107 1.542747
v -3.085492 13.629107 0.000001
v -2.672116 13.629107 -1.542745
v -1.542748 13.629107 -2.672114
v 0.000000 14.141147 -3.522080
v 1.761040 14.141147 -3.050211
v 3.050211 14.141147 -1.761040
v 3.522080 14.141147 0.000000
v 3.050211 14.141147 1.761040
v 1.761040 14.141147 3.050211
v 0.000001 14.141147 3.522080
v -1.761039 14.141147 3.050211
v -3.050210 14.141147 1.761041
v -3.522080 14.141147 0.000002
v -3.050212 14.141147 -1.761038
v -1.761042 14.141147 -3.050210
v 0.000000 -2.416900 -3.085492
v 1.542746 -2.416899 -2.672115
v 2.672115 -2.416899 -1.542746
v 3.085492 -2.416899 0.000000
v 2.672115 -2.416899 1.542746
v 1.542746 -2.416899 2.672115
v 0.000000 -2.416899 3.085492
v -1.542746 -2.416899 2.672115
v -2.672114 -2.416899 1.542747
v -3.085492 -2.416899 0.000001
v -2.672116 -2.416899 -1.542745
v -1.542748 -2.416899 -2.672114
v 0.000000 -1.903788 -3.601958
v 1.800979 -1.903787 -3.119387
v 3.119387 -1.903787 -1.800979
v 3.601958 -1.903787 0.000000
v 3.119387 -1.903787 1.800979
v 1.800979 -1.903787 3.119386
v 0.000001 -1.903787 3.601957
v -1.800978 -1.903787 3.119387
v -3.119386 -1.903787 1.800980
v -3.601958 -1.903787 0.000002
v -3.119388 -1.903787 -1.800977
v -1.800981 -1.903787 -3.119386
v 1.809714 -16.359646 -3.134513
v 3.134516 -16.359646 -1.809712
v 3.619427 -16.359646 0.000000
v 3.134515 -16.359646 1.809712
v 1.809714 -16.359646 3.134513
v 0.000003 -16.359646 3.619425
v -1.809709 -16.359646 3.134514
v -3.134511 -16.359646 1.809713
v -3.619422 -16.359646 0.000002
v -3.134512 -16.359646 -1.809711
v -1.809712 -16.359646 -3.134512
v 0.000002 -16.359646 -3.619425
vt 0.083333 0.857798
vt 0.166667 0.857798
vt 0.250000 0.857798
vt 0.333333 0.857798
vt 0.416667 0.857798
vt 0.500000 0.857798
vt 0.583333 0.857798
vt 0.666667 0.857798
vt 0.750000 0.857798
vt 0.833333 0.857798
vt 0.916667 0.857798
vt 1.000000 0.857798
vt 0.750000 0.490000
vt 0.870000 0.457846
vt 0.957846 0.370000
vt 0.990000 0.250000
vt 0.957846 0.130000
vt 0.870000 0.042154
vt 0.750000 0.010000
vt 0.630000 0.042154
vt 0.542154 0.130000
vt 0.510000 0.250000
vt 0.542154 0.370000
vt 0.630000 0.457846
vt 0.083333 0.852015
vt 0.000000 0.857798
vt 0.000000 0.852015
vt 0.166667 0.852015
vt 0.250000 0.852015
vt 0.333333 0.852015
vt 0.416667 0.852015
vt 0.500000 0.852015
vt 0.583333 0.852015
vt 0.666667 0.852015
vt 0.750000 0.852015
vt 0.833333 0.852015
vt 0.916667 0.852015
vt 1.000000 0.852015
vt 1.000000 0.670811
vt 1.000000 0.676606
vt 0.916667 0.676606
vt 0.916667 0.670811
vt 0.833333 0.676605
vt 0.833333 0.670811
vt 0.750000 0.676606
vt 0.750000 0.670811
vt 0.666667 0.676605
vt 0.666667 0.670811
vt 0.583333 0.676605
vt 0.583333 0.670811
vt 0.500000 0.676606
vt 0.500000 0.670811
vt 0.416667 0.676605
vt 0.416667 0.670811
vt 0.333333 0.676606
vt 0.333333 0.670811
vt 0.250000 0.676605
vt 0.250000 0.670811
vt 0.166667 0.676606
vt 0.166667 0.670811
vt 0.083333 0.676606
vt 0.083333 0.670811
vt 0.000000 0.676605
vt 0.000000 0.670811
vt 1.000000 0.767202
vt 0.916667 0.767202
vt 0.833333 0.767202
vt 0.750000 0.767202
vt 0.666667 0.767202
vt 0.583333 0.767202
vt 0.500000 0.767202
vt 0.416667 0.767202
vt 0.333333 0.767202
vt 0.250000 0.767202
vt 0.166667 0.767202
vt 0.083333 0.767202
vt 0.000000 0.767202
vt 0.083333 0.515104
vt 0.083333 0.588303
vt 0.000000 0.588303
vt 0.000000 0.515104
vt 0.166667 0.515104
vt 0.166667 0.588303
vt 0.250000 0.515104
vt 0.250000 0.588303
vt 0.333333 0.515104
vt 0.333333 0.588303
vt 0.416667 0.515104
vt 0.416667 0.588303
vt 0.500000 0.515104
vt 0.500000 0.588303
vt 0.583333 0.515104
vt 0.583333 0.588303
vt 0.666667 0.515104
vt 0.666667 0.588303
vt 0.750000 0.515104
vt 0.750000 0.588303
vt 0.833333 0.515104
vt 0.833333 0.588303
vt 0.916667 0.515104
vt 0.916667 0.588303
vt 1.000000 0.515104
vt 1.000000 0.588303
vt 1.000000 0.507552
vt 0.916667 0.507552
vt 0.833333 0.507552
vt 0.750000 0.507552
vt 0.666667 0.507552
vt 0.583333 0.507552
vt 0.500000 0.507552
vt 0.416667 0.507552
vt 0.333333 0.507552
vt 0.250000 0.507552
vt 0.166667 0.507552
vt 0.083333 0.507552
vt 0.000000 0.507552
vt 1.000000 0.846233
vt 0.916667 0.846233
vt 0.833333 0.846233
vt 0.750000 0.846233
vt 0.666667 0.846233
vt 0.583333 0.846233
vt 0.500000 0.846233
vt 0.416667 0.846233
vt 0.333333 0.846233
vt 0.250000 0.846233
vt 0.166667 0.846233
vt 0.083333 0.846233
vt 0.000000 0.846233
vt 0.083333 0.665016
vt 0.000000 0.665016
vt 0.166667 0.665016
vt 0.250000 0.665016
vt 0.333333 0.665016
vt 0.416667 0.665016
vt 0.500000 0.665016
vt 0.583333 0.665016
vt 0.666667 0.665016
vt 0.750000 0.665016
vt 0.833333 0.665016
vt 0.916667 0.665016
vt 1.000000 0.665016
vt 0.083333 0.500000
vt 0.000000 0.500000
vt 0.166667 0.500000
vt 0.250000 0.500000
vt 0.333333 0.500000
vt 0.416667 0.500000
vt 0.500000 0.500000
vt 0.583333 0.500000
vt 0.666667 0.500000
vt 0.750000 0.500000
vt 0.833333 0.500000
vt 0.916667 0.500000
vt 1.000000 0.500000
vn 0.0000 1.0000 0.0000
vn 0.0000 -1.0000 -0.0000
vn -0.1998 0.6357 -0.7456
vn -0.5458 0.6357 -0.5458
vn -0.7456 0.6357 -0.1998
vn -0.7456 0.6357 0.1998
vn -0.5458 0.6357 0.5458
vn -0.1998 0.6357 0.7456
vn 0.1998 0.6357 0.7456
vn 0.5458 0.6357 0.5458
vn 0.7456 0.6357 0.1998
vn 0.7456 0.6357 -0.1998
vn 0.5458 0.6357 -0.5458
vn 0.1998 0.6357 -0.7456
vn 0.1856 0.6971 -0.6926
vn 0.5070 0.6971 -0.5070
vn 0.6926 0.6971 -0.1856
vn 0.6926 0.6971 0.1856
vn 0.5070 0.6971 0.5070
vn 0.1856 0.6971 0.6926
vn -0.1856 0.6971 0.6926
vn -0.5070 0.6971 0.5070
vn -0.6926 0.6971 0.1856
vn -0.6926 0.6971 -0.1856
vn -0.5070 0.6971 -0.5070
vn -0.1856 0.6971 -0.6926
vn 0.2585 0.0501 -0.9647
vn 0.7062 0.0501 -0.7062
vn 0.9647 0.0501 -0.2585
vn 0.9647 0.0501 0.2585
vn 0.7062 0.0501 0.7062
vn 0.2585 0.0501 0.9647
vn -0.2585 0.0501 0.9647
vn -0.7062 0.0501 0.7062
vn -0.9647 0.0501 0.2585
vn -0.9647 0.0501 -0.2585
vn -0.7062 0.0501 -0.7062
vn -0.2585 0.0501 -0.9647
vn -0.2580 0.0772 -0.9630
vn -0.7050 0.0772 -0.7050
vn -0.9630 0.0772 -0.2580
vn -0.9630 0.0772 0.2580
vn -0.7050 0.0772 0.7050
vn -0.2580 0.0772 0.9630
vn 0.2580 0.0772 0.9630
vn 0.7050 0.0772 0.7050
vn 0.9630 0.0772 0.2580
vn 0.9630 0.0772 -0.2580
vn 0.7050 0.0772 -0.7050
vn 0.2580 0.0772 -0.9630
vn 0.2049 0.6107 -0.7649
vn 0.5599 0.6107 -0.5599
vn 0.7649 0.6107 -0.2049
vn 0.7649 0.6107 0.2049
vn 0.5599 0.6107 0.5599
vn 0.2049 0.6107 0.7649
vn -0.2049 0.6107 0.7649
vn -0.5599 0.6107 0.5599
vn -0.7649 0.6107 0.2049
vn -0.7649 0.6107 -0.2049
vn -0.5599 0.6107 -0.5599
vn -0.2049 0.6107 -0.7649
vn 0.2584 -0.0574 -0.9643
vn 0.7059 -0.0574 -0.7059
vn 0.9643 -0.0574 -0.2584
vn 0.9643 -0.0574 0.2584
vn 0.7059 -0.0574 0.7059
vn 0.2584 -0.0574 0.9643
vn -0.2584 -0.0574 0.9643
vn -0.7059 -0.0574 0.7059
vn -0.9643 -0.0574 0.2584
vn -0.9643 -0.0574 -0.2584
vn -0.7059 -0.0574 -0.7059
vn -0.2584 -0.0574 -0.9643
vn 0.1998 -0.6357 -0.7456
vn 0.5458 -0.6357 -0.5458
vn 0.7456 -0.6357 -0.1998
vn 0.7456 -0.6357 0.1998
vn 0.5458 -0.6357 0.5458
vn 0.1998 -0.6357 0.7456
vn -0.1998 -0.6357 0.7456
vn -0.5458 -0.6357 0.5458
vn -0.7456 -0.6357 0.1998
vn -0.7456 -0.6357 -0.1998
vn -0.5458 -0.6357 -0.5458
vn -0.1998 -0.6357 -0.7456
vn -0.2581 -0.0737 -0.9633
vn -0.7052 -0.0737 -0.7052
vn -0.9633 -0.0737 -0.2581
vn -0.9633 -0.0737 0.2581
vn -0.7052 -0.0737 0.7052
vn -0.2581 -0.0737 0.9633
vn 0.2581 -0.0737 0.9633
vn 0.7052 -0.0737 0.7052
vn 0.9633 -0.0737 0.2581
vn 0.9633 -0.0737 -0.2581
vn 0.7052 -0.0737 -0.7052
vn 0.2581 -0.0737 -0.9633
vn -0.1856 -0.6971 -0.6926
vn -0.5070 -0.6971 -0.5070
vn -0.6926 -0.6971 -0.1856
vn -0.6926 -0.6971 0.1856
vn -0.5070 -0.6971 0.5070
vn -0.1856 -0.6971 0.6926
vn 0.1856 -0.6971 0.6926
vn 0.5070 -0.6971 0.5070
vn 0.6926 -0.6971 0.1856
vn 0.6926 -0.6971 -0.1856
vn 0.5070 -0.6971 -0.5070
vn 0.1856 -0.6971 -0.6926
vn -0.2049 -0.6107 -0.7649
vn -0.5599 -0.6107 -0.5599
vn -0.7649 -0.6107 -0.2049
vn -0.7649 -0.6107 0.2049
vn -0.5599 -0.6107 0.5599
vn -0.2049 -0.6107 0.7649
vn 0.2049 -0.6107 0.7649
vn 0.5599 -0.6107 0.5599
vn 0.7649 -0.6107 0.2049
vn 0.7649 -0.6107 -0.2049
vn 0.5599 -0.6107 -0.5599
vn 0.2049 -0.6107 -0.7649
usemtl None
s off
f 24/1/1 23/2/1 22/3/1 21/4/1 20/5/1 19/6/1 18/7/1 17/8/1 16/9/1 15/10/1 14/11/1 13/12/1
f 1/13/2 2/14/2 3/15/2 4/16/2 5/17/2 6/18/2 7/19/2 8/20/2 9/21/2 10/22/2 11/23/2 12/24/2
f 96/25/3 24/1/3 13/26/3 85/27/3
f 95/28/4 23/2/4 24/1/4 96/25/4
f 94/29/5 22/3/5 23/2/5 95/28/5
f 93/30/6 21/4/6 22/3/6 94/29/6
f 92/31/7 20/5/7 21/4/7 93/30/7
f 91/32/8 19/6/8 20/5/8 92/31/8
f 90/33/9 18/7/9 19/6/9 91/32/9
f 89/34/10 17/8/10 18/7/10 90/33/10
f 88/35/11 16/9/11 17/8/11 89/34/11
f 87/36/12 15/10/12 16/9/12 88/35/12
f 86/37/13 14/11/13 15/10/13 87/36/13
f 85/38/14 13/12/14 14/11/14 86/37/14
f 109/39/15 36/40/15 25/41/15 110/42/15
f 110/42/16 25/41/16 26/43/16 111/44/16
f 111/44/17 26/43/17 27/45/17 112/46/17
f 112/46/18 27/45/18 28/47/18 113/48/18
f 113/48/19 28/47/19 29/49/19 114/50/19
f 114/50/20 29/49/20 30/51/20 115/52/20
f 115/52/21 30/51/21 31/53/21 116/54/21
f 116/54/22 31/53/22 32/55/22 117/56/22
f 117/56/23 32/55/23 33/57/23 118/58/23
f 118/58/24 33/57/24 34/59/24 119/60/24
f 119/60/25 34/59/25 35/61/25 120/62/25
f 120/62/26 35/61/26 36/63/26 109/64/26
f 36/40/27 37/65/27 38/66/27 25/41/27
f 25/41/28 38/66/28 39/67/28 26/43/28
f 26/43/29 39/67/29 40/68/29 27/45/29
f 27/45/30 40/68/30 41/69/30 28/47/30
f 28/47/31 41/69/31 42/70/31 29/49/31
f 29/49/32 42/70/32 43/71/32 30/51/32
f 30/51/33 43/71/33 44/72/33 31/53/33
f 31/53/34 44/72/34 45/73/34 32/55/34
f 32/55/35 45/73/35 46/74/35 33/57/35
f 33/57/36 46/74/36 47/75/36 34/59/36
f 34/59/37 47/75/37 48/76/37 35/61/37
f 35/61/38 48/76/38 37/77/38 36/63/38
f 71/78/39 59/79/39 60/80/39 72/81/39
f 70/82/40 58/83/40 59/79/40 71/78/40
f 69/84/41 57/85/41 58/83/41 70/82/41
f 68/86/42 56/87/42 57/85/42 69/84/42
f 67/88/43 55/89/43 56/87/43 68/86/43
f 66/90/44 54/91/44 55/89/44 67/88/44
f 65/92/45 53/93/45 54/91/45 66/90/45
f 64/94/46 52/95/46 53/93/46 65/92/46
f 63/96/47 51/97/47 52/95/47 64/94/47
f 62/98/48 50/99/48 51/97/48 63/96/48
f 61/100/49 49/101/49 50/99/49 62/98/49
f 72/102/50 60/103/50 49/101/50 61/100/50
f 132/104/51 72/102/51 61/100/51 121/105/51
f 121/105/52 61/100/52 62/98/52 122/106/52
f 122/106/53 62/98/53 63/96/53 123/107/53
f 123/107/54 63/96/54 64/94/54 124/108/54
f 124/108/55 64/94/55 65/92/55 125/109/55
f 125/109/56 65/92/56 66/90/56 126/110/56
f 126/110/57 66/90/57 67/88/57 127/111/57
f 127/111/58 67/88/58 68/86/58 128/112/58
f 128/112/59 68/86/59 69/84/59 129/113/59
f 129/113/60 69/84/60 70/82/60 130/114/60
f 130/114/61 70/82/61 71/78/61 131/115/61
f 131/115/62 71/78/62 72/81/62 132/116/62
f 37/65/63 73/117/63 74/118/63 38/66/63
f 38/66/64 74/118/64 75/119/64 39/67/64
f 39/67/65 75/119/65 76/120/65 40/68/65
f 40/68/66 76/120/66 77/121/66 41/69/66
f 41/69/67 77/121/67 78/122/67 42/70/67
f 42/70/68 78/122/68 79/123/68 43/71/68
f 43/71/69 79/123/69 80/124/69 44/72/69
f 44/72/70 80/124/70 81/125/70 45/73/70
f 45/73/71 81/125/71 82/126/71 46/74/71
f 46/74/72 82/126/72 83/127/72 47/75/72
f 47/75/73 83/127/73 84/128/73 48/76/73
f 48/76/74 84/128/74 73/129/74 37/77/74
f 73/117/75 85/38/75 86/37/75 74/118/75
f 74/118/76 86/37/76 87/36/76 75/119/76
f 75/119/77 87/36/77 88/35/77 76/120/77
f 76/120/78 88/35/78 89/34/78 77/121/78
f 77/121/79 89/34/79 90/33/79 78/122/79
f 78/122/80 90/33/80 91/32/80 79/123/80
f 79/123/81 91/32/81 92/31/81 80/124/81
f 80/124/82 92/31/82 93/30/82 81/125/82
f 81/125/83 93/30/83 94/29/83 82/126/83
f 82/126/84 94/29/84 95/28/84 83/127/84
f 83/127/85 95/28/85 96/25/85 84/128/85
f 84/128/86 96/25/86 85/27/86 73/129/86
f 59/79/87 108/130/87 97/131/87 60/80/87
f 58/83/88 107/132/88 108/130/88 59/79/88
f 57/85/89 106/133/89 107/132/89 58/83/89
f 56/87/90 105/134/90 106/133/90 57/85/90
f 55/89/91 104/135/91 105/134/91 56/87/91
f 54/91/92 103/136/92 104/135/92 55/89/92
f 53/93/93 102/137/93 103/136/93 54/91/93
f 52/95/94 101/138/94 102/137/94 53/93/94
f 51/97/95 100/139/95 101/138/95 52/95/95
f 50/99/96 99/140/96 100/139/96 51/97/96
f 49/101/97 98/141/97 99/140/97 50/99/97
f 60/103/98 97/142/98 98/141/98 49/101/98
f 108/130/99 120/62/99 109/64/99 97/131/99
f 107/132/100 119/60/100 120/62/100 108/130/100
f 106/133/101 118/58/101 119/60/101 107/132/101
f 105/134/102 117/56/102 118/58/102 106/133/102
f 104/135/103 116/54/103 117/56/103 105/134/103
f 103/136/104 115/52/104 116/54/104 104/135/104
f 102/137/105 114/50/105 115/52/105 103/136/105
f 101/138/106 113/48/106 114/50/106 102/137/106
f 100/139/107 112/46/107 113/48/107 101/138/107
f 99/140/108 111/44/108 112/46/108 100/139/108
f 98/141/109 110/42/109 111/44/109 99/140/109
f 97/142/110 109/39/110 110/42/110 98/141/110
f 12/143/111 131/115/111 132/116/111 1/144/111
f 11/145/112 130/114/112 131/115/112 12/143/112
f 10/146/113 129/113/113 130/114/113 11/145/113
f 9/147/114 128/112/114 129/113/114 10/146/114
f 8/148/115 127/111/115 128/112/115 9/147/115
f 7/149/116 126/110/116 127/111/116 8/148/116
f 6/150/117 125/109/117 126/110/117 7/149/117
f 5/151/118 124/108/118 125/109/118 6/150/118
f 4/152/119 123/107/119 124/108/119 5/151/119
f 3/153/120 122/106/120 123/107/120 4/152/120
f 2/154/121 121/105/121 122/106/121 3/153/121
f 1/155/122 132/104/122 121/105/122 2/154/122
